<svg xmlns="http://www.w3.org/2000/svg" xmlns:xlink="http://www.w3.org/1999/xlink" width="123" zoomAndPan="magnify" viewBox="0 0 92.25 101.999999" height="136" preserveAspectRatio="xMidYMid meet" version="1.0"><defs><g/><clipPath id="c6c8427b26"><path d="M 0 34.46875 L 91 34.46875 L 91 101.398438 L 0 101.398438 Z M 0 34.46875 " clip-rule="nonzero"/></clipPath><clipPath id="70c4d5d22b"><path d="M 17.109375 34.46875 L 73.992188 34.46875 C 83.441406 34.46875 91.101562 42.128906 91.101562 51.578125 L 91.101562 84.285156 C 91.101562 93.738281 83.441406 101.398438 73.992188 101.398438 L 17.109375 101.398438 C 7.660156 101.398438 0 93.738281 0 84.285156 L 0 51.578125 C 0 42.128906 7.660156 34.46875 17.109375 34.46875 Z M 17.109375 34.46875 " clip-rule="nonzero"/></clipPath><clipPath id="5cbfe9660b"><path d="M 41.828125 8.109375 L 49.273438 8.109375 L 49.273438 43.578125 L 41.828125 43.578125 Z M 41.828125 8.109375 " clip-rule="nonzero"/></clipPath><clipPath id="2e3023f0e0"><path d="M 45.550781 8.109375 C 46.539062 8.109375 47.484375 8.503906 48.183594 9.199219 C 48.878906 9.898438 49.273438 10.84375 49.273438 11.832031 L 49.273438 39.835938 C 49.273438 40.820312 48.878906 41.769531 48.183594 42.464844 C 47.484375 43.164062 46.539062 43.554688 45.550781 43.554688 C 44.5625 43.554688 43.617188 43.164062 42.917969 42.464844 C 42.222656 41.769531 41.828125 40.820312 41.828125 39.835938 L 41.828125 11.832031 C 41.828125 10.84375 42.222656 9.898438 42.917969 9.199219 C 43.617188 8.503906 44.5625 8.109375 45.550781 8.109375 Z M 45.550781 8.109375 " clip-rule="nonzero"/></clipPath><clipPath id="e2ce8c428a"><path d="M 37.714844 0.410156 L 53.410156 0.410156 L 53.410156 15.808594 L 37.714844 15.808594 Z M 37.714844 0.410156 " clip-rule="nonzero"/></clipPath><clipPath id="2d7147c17d"><path d="M 45.550781 0.410156 C 41.222656 0.410156 37.714844 3.859375 37.714844 8.109375 C 37.714844 12.363281 41.222656 15.808594 45.550781 15.808594 C 49.878906 15.808594 53.386719 12.363281 53.386719 8.109375 C 53.386719 3.859375 49.878906 0.410156 45.550781 0.410156 Z M 45.550781 0.410156 " clip-rule="nonzero"/></clipPath><clipPath id="9e634c7307"><path d="M 23.902344 77.449219 L 67.25 77.449219 L 67.25 94.214844 L 23.902344 94.214844 Z M 23.902344 77.449219 " clip-rule="nonzero"/></clipPath><clipPath id="6128ef9b7c"><path d="M 32.28125 77.449219 L 58.820312 77.449219 C 61.042969 77.449219 63.171875 78.332031 64.746094 79.90625 C 66.316406 81.476562 67.199219 83.609375 67.199219 85.832031 C 67.199219 88.054688 66.316406 90.1875 64.746094 91.757812 C 63.171875 93.332031 61.042969 94.214844 58.820312 94.214844 L 32.28125 94.214844 C 30.058594 94.214844 27.925781 93.332031 26.355469 91.757812 C 24.785156 90.1875 23.902344 88.054688 23.902344 85.832031 C 23.902344 83.609375 24.785156 81.476562 26.355469 79.90625 C 27.925781 78.332031 30.058594 77.449219 32.28125 77.449219 Z M 32.28125 77.449219 " clip-rule="nonzero"/></clipPath><clipPath id="e0a10b1eec"><path d="M 57.164062 47.675781 L 77.265625 47.675781 L 77.265625 67.394531 L 57.164062 67.394531 Z M 57.164062 47.675781 " clip-rule="nonzero"/></clipPath><clipPath id="5efb8e5b6d"><path d="M 67.199219 47.675781 C 61.65625 47.675781 57.164062 52.089844 57.164062 57.535156 C 57.164062 62.980469 61.65625 67.394531 67.199219 67.394531 C 72.742188 67.394531 77.238281 62.980469 77.238281 57.535156 C 77.238281 52.089844 72.742188 47.675781 67.199219 47.675781 Z M 67.199219 47.675781 " clip-rule="nonzero"/></clipPath><clipPath id="52e307f994"><path d="M 13.863281 47.675781 L 33.96875 47.675781 L 33.96875 67.394531 L 13.863281 67.394531 Z M 13.863281 47.675781 " clip-rule="nonzero"/></clipPath><clipPath id="85598e902e"><path d="M 23.902344 47.675781 C 18.359375 47.675781 13.863281 52.089844 13.863281 57.535156 C 13.863281 62.980469 18.359375 67.394531 23.902344 67.394531 C 29.445312 67.394531 33.9375 62.980469 33.9375 57.535156 C 33.9375 52.089844 29.445312 47.675781 23.902344 47.675781 Z M 23.902344 47.675781 " clip-rule="nonzero"/></clipPath></defs><g clip-path="url(#c6c8427b26)"><g clip-path="url(#70c4d5d22b)"><path fill="#000000" d="M 0 34.46875 L 90.984375 34.46875 L 90.984375 101.398438 L 0 101.398438 Z M 0 34.46875 " fill-opacity="1" fill-rule="nonzero"/></g></g><g clip-path="url(#5cbfe9660b)"><g clip-path="url(#2e3023f0e0)"><path fill="#000000" d="M 41.828125 8.109375 L 49.273438 8.109375 L 49.273438 43.550781 L 41.828125 43.550781 Z M 41.828125 8.109375 " fill-opacity="1" fill-rule="nonzero"/></g></g><g clip-path="url(#e2ce8c428a)"><g clip-path="url(#2d7147c17d)"><path fill="#000000" d="M 37.714844 0.410156 L 53.410156 0.410156 L 53.410156 15.808594 L 37.714844 15.808594 Z M 37.714844 0.410156 " fill-opacity="1" fill-rule="nonzero"/></g></g><g clip-path="url(#9e634c7307)"><g clip-path="url(#6128ef9b7c)"><path fill="#ffffff" d="M 23.902344 77.449219 L 67.183594 77.449219 L 67.183594 94.214844 L 23.902344 94.214844 Z M 23.902344 77.449219 " fill-opacity="1" fill-rule="nonzero"/></g></g><g fill="#ff3131" fill-opacity="1"><g transform="translate(35.490041, 88.609425)"><g><path d="M 3.859375 -1.359375 C 3.859375 -1.097656 3.800781 -0.863281 3.6875 -0.65625 C 3.582031 -0.457031 3.421875 -0.289062 3.203125 -0.15625 C 2.984375 -0.03125 2.707031 0.0390625 2.375 0.0625 L 2.375 0.78125 L 1.890625 0.78125 L 1.890625 0.0625 C 1.492188 0.0195312 1.164062 -0.0820312 0.90625 -0.25 C 0.644531 -0.414062 0.457031 -0.613281 0.34375 -0.84375 L 0.65625 -1.234375 L 0.734375 -1.234375 C 1.003906 -0.785156 1.390625 -0.53125 1.890625 -0.46875 L 1.890625 -2.359375 L 1.734375 -2.390625 C 1.304688 -2.492188 0.988281 -2.660156 0.78125 -2.890625 C 0.582031 -3.117188 0.484375 -3.40625 0.484375 -3.75 C 0.484375 -3.976562 0.535156 -4.179688 0.640625 -4.359375 C 0.753906 -4.546875 0.914062 -4.695312 1.125 -4.8125 C 1.332031 -4.925781 1.585938 -4.992188 1.890625 -5.015625 L 1.890625 -5.734375 L 2.375 -5.734375 L 2.375 -5.015625 C 2.96875 -4.960938 3.394531 -4.753906 3.65625 -4.390625 L 3.375 -4.015625 L 3.296875 -4.015625 C 3.171875 -4.148438 3.035156 -4.257812 2.890625 -4.34375 C 2.742188 -4.425781 2.570312 -4.476562 2.375 -4.5 L 2.375 -2.8125 L 2.5 -2.78125 C 2.976562 -2.664062 3.320312 -2.488281 3.53125 -2.25 C 3.75 -2.019531 3.859375 -1.722656 3.859375 -1.359375 Z M 1.0625 -3.765625 C 1.0625 -3.546875 1.125 -3.367188 1.25 -3.234375 C 1.375 -3.097656 1.585938 -2.992188 1.890625 -2.921875 L 1.890625 -4.5 C 1.617188 -4.476562 1.410156 -4.398438 1.265625 -4.265625 C 1.128906 -4.140625 1.0625 -3.972656 1.0625 -3.765625 Z M 2.375 -0.46875 C 2.675781 -0.5 2.898438 -0.585938 3.046875 -0.734375 C 3.191406 -0.890625 3.265625 -1.09375 3.265625 -1.34375 C 3.265625 -1.5 3.234375 -1.628906 3.171875 -1.734375 C 3.117188 -1.847656 3.03125 -1.941406 2.90625 -2.015625 C 2.78125 -2.097656 2.601562 -2.171875 2.375 -2.234375 Z M 2.375 -0.46875 "/></g></g></g><g fill="#ff3131" fill-opacity="1"><g transform="translate(39.735853, 88.609425)"><g><path d="M 4.28125 -3.484375 L 4.28125 -3.03125 L 3.453125 -3.03125 L 3.265625 -1.921875 L 4.078125 -1.921875 L 4.078125 -1.46875 L 3.1875 -1.46875 L 2.9375 0 L 2.4375 0 L 2.6875 -1.46875 L 1.5625 -1.46875 L 1.3125 0 L 0.8125 0 L 1.046875 -1.46875 L 0.3125 -1.46875 L 0.3125 -1.921875 L 1.125 -1.921875 L 1.3125 -3.03125 L 0.5 -3.03125 L 0.5 -3.484375 L 1.390625 -3.484375 L 1.640625 -4.953125 L 2.140625 -4.953125 L 1.890625 -3.484375 L 3.03125 -3.484375 L 3.28125 -4.953125 L 3.78125 -4.953125 L 3.53125 -3.484375 Z M 1.625 -1.921875 L 2.765625 -1.921875 L 2.953125 -3.03125 L 1.8125 -3.03125 Z M 1.625 -1.921875 "/></g></g></g><g fill="#ff3131" fill-opacity="1"><g transform="translate(44.323899, 88.609425)"><g><path d="M 1.609375 -3.25 L 1.0625 -2.296875 L 0.609375 -2.640625 L 1.34375 -3.4375 L 1.3125 -3.515625 L 0.234375 -3.734375 L 0.4375 -4.28125 L 1.421875 -3.828125 L 1.46875 -3.875 L 1.359375 -4.953125 L 1.9375 -4.953125 L 1.8125 -3.875 L 1.859375 -3.828125 L 2.859375 -4.28125 L 3.03125 -3.734375 L 1.96875 -3.515625 L 1.953125 -3.4375 L 2.6875 -2.640625 L 2.203125 -2.3125 L 1.671875 -3.25 Z M 1.609375 -3.25 "/></g></g></g><g fill="#ff3131" fill-opacity="1"><g transform="translate(47.600596, 88.609425)"><g><path d="M 1.40625 -2.265625 C 1.1875 -2.265625 0.988281 -2.3125 0.8125 -2.40625 C 0.644531 -2.507812 0.515625 -2.660156 0.421875 -2.859375 C 0.328125 -3.066406 0.28125 -3.328125 0.28125 -3.640625 C 0.28125 -4.109375 0.378906 -4.457031 0.578125 -4.6875 C 0.785156 -4.914062 1.0625 -5.03125 1.40625 -5.03125 C 1.625 -5.03125 1.816406 -4.976562 1.984375 -4.875 C 2.160156 -4.78125 2.296875 -4.628906 2.390625 -4.421875 C 2.484375 -4.210938 2.53125 -3.953125 2.53125 -3.640625 C 2.53125 -3.328125 2.484375 -3.066406 2.390625 -2.859375 C 2.296875 -2.660156 2.160156 -2.507812 1.984375 -2.40625 C 1.816406 -2.3125 1.625 -2.265625 1.40625 -2.265625 Z M 1.515625 0 L 1.03125 0 L 1.015625 -0.078125 L 4.328125 -4.953125 L 4.828125 -4.953125 L 4.828125 -4.875 Z M 1.40625 -2.6875 C 1.625 -2.6875 1.78125 -2.757812 1.875 -2.90625 C 1.976562 -3.050781 2.03125 -3.296875 2.03125 -3.640625 C 2.03125 -3.984375 1.976562 -4.226562 1.875 -4.375 C 1.78125 -4.519531 1.625 -4.59375 1.40625 -4.59375 C 1.257812 -4.59375 1.140625 -4.5625 1.046875 -4.5 C 0.960938 -4.445312 0.894531 -4.347656 0.84375 -4.203125 C 0.800781 -4.066406 0.78125 -3.878906 0.78125 -3.640625 C 0.78125 -3.410156 0.800781 -3.222656 0.84375 -3.078125 C 0.894531 -2.941406 0.960938 -2.84375 1.046875 -2.78125 C 1.140625 -2.71875 1.257812 -2.6875 1.40625 -2.6875 Z M 4.453125 0.078125 C 4.109375 0.078125 3.832031 -0.0351562 3.625 -0.265625 C 3.425781 -0.492188 3.328125 -0.84375 3.328125 -1.3125 C 3.328125 -1.769531 3.425781 -2.113281 3.625 -2.34375 C 3.832031 -2.570312 4.109375 -2.6875 4.453125 -2.6875 C 4.671875 -2.6875 4.863281 -2.632812 5.03125 -2.53125 C 5.195312 -2.4375 5.328125 -2.285156 5.421875 -2.078125 C 5.515625 -1.878906 5.5625 -1.625 5.5625 -1.3125 C 5.5625 -1 5.515625 -0.738281 5.421875 -0.53125 C 5.328125 -0.320312 5.195312 -0.164062 5.03125 -0.0625 C 4.863281 0.03125 4.671875 0.078125 4.453125 0.078125 Z M 4.453125 -0.359375 C 4.660156 -0.359375 4.816406 -0.429688 4.921875 -0.578125 C 5.023438 -0.722656 5.078125 -0.96875 5.078125 -1.3125 C 5.078125 -1.65625 5.023438 -1.898438 4.921875 -2.046875 C 4.816406 -2.191406 4.660156 -2.265625 4.453125 -2.265625 C 4.234375 -2.265625 4.070312 -2.191406 3.96875 -2.046875 C 3.875 -1.898438 3.828125 -1.65625 3.828125 -1.3125 C 3.828125 -0.957031 3.875 -0.707031 3.96875 -0.5625 C 4.070312 -0.425781 4.234375 -0.359375 4.453125 -0.359375 Z M 4.453125 -0.359375 "/></g></g></g><g fill="#ff3131" fill-opacity="1"><g transform="translate(53.459339, 88.609425)"><g><path d="M 1.359375 -1.640625 L 0.78125 -1.640625 L 0.78125 -4.953125 L 1.359375 -4.953125 Z M 1.0625 0.03125 C 0.9375 0.03125 0.835938 -0.00390625 0.765625 -0.078125 C 0.691406 -0.148438 0.65625 -0.242188 0.65625 -0.359375 C 0.65625 -0.472656 0.691406 -0.566406 0.765625 -0.640625 C 0.835938 -0.722656 0.9375 -0.765625 1.0625 -0.765625 C 1.195312 -0.765625 1.300781 -0.726562 1.375 -0.65625 C 1.445312 -0.582031 1.484375 -0.488281 1.484375 -0.375 C 1.484375 -0.25 1.445312 -0.148438 1.375 -0.078125 C 1.300781 -0.00390625 1.195312 0.03125 1.0625 0.03125 Z M 1.0625 0.03125 "/></g></g></g><g clip-path="url(#e0a10b1eec)"><g clip-path="url(#5efb8e5b6d)"><path fill="#ffffff" d="M 57.164062 47.675781 L 77.265625 47.675781 L 77.265625 67.394531 L 57.164062 67.394531 Z M 57.164062 47.675781 " fill-opacity="1" fill-rule="nonzero"/></g></g><g clip-path="url(#52e307f994)"><g clip-path="url(#85598e902e)"><path fill="#ffffff" d="M 13.863281 47.675781 L 33.96875 47.675781 L 33.96875 67.394531 L 13.863281 67.394531 Z M 13.863281 47.675781 " fill-opacity="1" fill-rule="nonzero"/></g></g></svg>