<svg xmlns="http://www.w3.org/2000/svg" xmlns:xlink="http://www.w3.org/1999/xlink" width="396" zoomAndPan="magnify" viewBox="0 0 297 101.999999" height="136" preserveAspectRatio="xMidYMid meet" version="1.0"><defs><g/><clipPath id="5e25dbb782"><path d="M 0 34.332031 L 91.988281 34.332031 L 91.988281 101.808594 L 0 101.808594 Z M 0 34.332031 " clip-rule="nonzero"/></clipPath><clipPath id="c0d097721c"><path d="M 17.25 34.332031 L 74.59375 34.332031 C 84.117188 34.332031 91.84375 42.054688 91.84375 51.582031 L 91.84375 84.558594 C 91.84375 94.085938 84.117188 101.808594 74.59375 101.808594 L 17.25 101.808594 C 7.722656 101.808594 0 94.085938 0 84.558594 L 0 51.582031 C 0 42.054688 7.722656 34.332031 17.25 34.332031 Z M 17.25 34.332031 " clip-rule="nonzero"/></clipPath><clipPath id="c8434b2799"><path d="M 42.167969 7.761719 L 49.671875 7.761719 L 49.671875 43.519531 L 42.167969 43.519531 Z M 42.167969 7.761719 " clip-rule="nonzero"/></clipPath><clipPath id="6d0f4cd1bc"><path d="M 45.921875 7.761719 C 46.914062 7.761719 47.871094 8.15625 48.574219 8.859375 C 49.277344 9.5625 49.671875 10.519531 49.671875 11.511719 L 49.671875 39.742188 C 49.671875 40.738281 49.277344 41.691406 48.574219 42.398438 C 47.871094 43.101562 46.914062 43.496094 45.921875 43.496094 C 44.925781 43.496094 43.972656 43.101562 43.269531 42.398438 C 42.566406 41.691406 42.167969 40.738281 42.167969 39.742188 L 42.167969 11.511719 C 42.167969 10.519531 42.566406 9.5625 43.269531 8.859375 C 43.972656 8.15625 44.925781 7.761719 45.921875 7.761719 Z M 45.921875 7.761719 " clip-rule="nonzero"/></clipPath><clipPath id="9200079a68"><path d="M 38.019531 0 L 53.847656 0 L 53.847656 15.523438 L 38.019531 15.523438 Z M 38.019531 0 " clip-rule="nonzero"/></clipPath><clipPath id="3c249aa101"><path d="M 45.921875 0 C 41.558594 0 38.019531 3.476562 38.019531 7.761719 C 38.019531 12.046875 41.558594 15.523438 45.921875 15.523438 C 50.285156 15.523438 53.820312 12.046875 53.820312 7.761719 C 53.820312 3.476562 50.285156 0 45.921875 0 Z M 45.921875 0 " clip-rule="nonzero"/></clipPath><clipPath id="146a36ad29"><path d="M 24.09375 77.664062 L 67.796875 77.664062 L 67.796875 94.566406 L 24.09375 94.566406 Z M 24.09375 77.664062 " clip-rule="nonzero"/></clipPath><clipPath id="86dceaa46b"><path d="M 32.546875 77.664062 L 59.296875 77.664062 C 61.539062 77.664062 63.6875 78.554688 65.273438 80.140625 C 66.855469 81.726562 67.746094 83.875 67.746094 86.113281 C 67.746094 88.355469 66.855469 90.503906 65.273438 92.089844 C 63.6875 93.675781 61.539062 94.566406 59.296875 94.566406 L 32.546875 94.566406 C 30.304688 94.566406 28.15625 93.675781 26.570312 92.089844 C 24.984375 90.503906 24.09375 88.355469 24.09375 86.113281 C 24.09375 83.875 24.984375 81.726562 26.570312 80.140625 C 28.15625 78.554688 30.304688 77.664062 32.546875 77.664062 Z M 32.546875 77.664062 " clip-rule="nonzero"/></clipPath><clipPath id="e50960c182"><path d="M 57.628906 47.648438 L 77.894531 47.648438 L 77.894531 67.527344 L 57.628906 67.527344 Z M 57.628906 47.648438 " clip-rule="nonzero"/></clipPath><clipPath id="b3b4532a16"><path d="M 67.746094 47.648438 C 62.160156 47.648438 57.628906 52.101562 57.628906 57.589844 C 57.628906 63.078125 62.160156 67.527344 67.746094 67.527344 C 73.335938 67.527344 77.863281 63.078125 77.863281 57.589844 C 77.863281 52.101562 73.335938 47.648438 67.746094 47.648438 Z M 67.746094 47.648438 " clip-rule="nonzero"/></clipPath><clipPath id="0ee45fe2a6"><path d="M 13.976562 47.648438 L 34.242188 47.648438 L 34.242188 67.527344 L 13.976562 67.527344 Z M 13.976562 47.648438 " clip-rule="nonzero"/></clipPath><clipPath id="5430791cf1"><path d="M 24.09375 47.648438 C 18.507812 47.648438 13.976562 52.101562 13.976562 57.589844 C 13.976562 63.078125 18.507812 67.527344 24.09375 67.527344 C 29.683594 67.527344 34.214844 63.078125 34.214844 57.589844 C 34.214844 52.101562 29.683594 47.648438 24.09375 47.648438 Z M 24.09375 47.648438 " clip-rule="nonzero"/></clipPath></defs><g clip-path="url(#5e25dbb782)"><g clip-path="url(#c0d097721c)"><path fill="#000000" d="M 0 34.332031 L 91.722656 34.332031 L 91.722656 101.808594 L 0 101.808594 Z M 0 34.332031 " fill-opacity="1" fill-rule="nonzero"/></g></g><g clip-path="url(#c8434b2799)"><g clip-path="url(#6d0f4cd1bc)"><path fill="#000000" d="M 42.167969 7.761719 L 49.671875 7.761719 L 49.671875 43.488281 L 42.167969 43.488281 Z M 42.167969 7.761719 " fill-opacity="1" fill-rule="nonzero"/></g></g><g clip-path="url(#9200079a68)"><g clip-path="url(#3c249aa101)"><path fill="#000000" d="M 38.019531 0 L 53.847656 0 L 53.847656 15.523438 L 38.019531 15.523438 Z M 38.019531 0 " fill-opacity="1" fill-rule="nonzero"/></g></g><g clip-path="url(#146a36ad29)"><g clip-path="url(#86dceaa46b)"><path fill="#ffffff" d="M 24.09375 77.664062 L 67.730469 77.664062 L 67.730469 94.566406 L 24.09375 94.566406 Z M 24.09375 77.664062 " fill-opacity="1" fill-rule="nonzero"/></g></g><g fill="#ff3131" fill-opacity="1"><g transform="translate(35.778579, 88.915193)"><g><path d="M 3.90625 -1.375 C 3.90625 -1.113281 3.847656 -0.878906 3.734375 -0.671875 C 3.617188 -0.460938 3.445312 -0.289062 3.21875 -0.15625 C 3 -0.03125 2.726562 0.0390625 2.40625 0.0625 L 2.40625 0.78125 L 1.90625 0.78125 L 1.90625 0.0625 C 1.507812 0.0195312 1.175781 -0.0820312 0.90625 -0.25 C 0.644531 -0.414062 0.457031 -0.613281 0.34375 -0.84375 L 0.65625 -1.234375 L 0.75 -1.234375 C 1.007812 -0.796875 1.394531 -0.539062 1.90625 -0.46875 L 1.90625 -2.375 L 1.75 -2.40625 C 1.320312 -2.519531 1.003906 -2.6875 0.796875 -2.90625 C 0.585938 -3.132812 0.484375 -3.425781 0.484375 -3.78125 C 0.484375 -4.007812 0.535156 -4.21875 0.640625 -4.40625 C 0.753906 -4.59375 0.914062 -4.742188 1.125 -4.859375 C 1.34375 -4.972656 1.601562 -5.039062 1.90625 -5.0625 L 1.90625 -5.78125 L 2.40625 -5.78125 L 2.40625 -5.0625 C 2.988281 -5.007812 3.414062 -4.800781 3.6875 -4.4375 L 3.40625 -4.046875 L 3.3125 -4.046875 C 3.195312 -4.191406 3.0625 -4.300781 2.90625 -4.375 C 2.757812 -4.457031 2.59375 -4.515625 2.40625 -4.546875 L 2.40625 -2.828125 L 2.515625 -2.8125 C 3.003906 -2.695312 3.359375 -2.519531 3.578125 -2.28125 C 3.796875 -2.039062 3.90625 -1.738281 3.90625 -1.375 Z M 1.0625 -3.796875 C 1.0625 -3.578125 1.125 -3.398438 1.25 -3.265625 C 1.382812 -3.128906 1.601562 -3.023438 1.90625 -2.953125 L 1.90625 -4.546875 C 1.625 -4.515625 1.410156 -4.429688 1.265625 -4.296875 C 1.128906 -4.171875 1.0625 -4.003906 1.0625 -3.796875 Z M 2.40625 -0.46875 C 2.707031 -0.5 2.929688 -0.585938 3.078125 -0.734375 C 3.222656 -0.890625 3.296875 -1.09375 3.296875 -1.34375 C 3.296875 -1.507812 3.265625 -1.644531 3.203125 -1.75 C 3.148438 -1.863281 3.054688 -1.960938 2.921875 -2.046875 C 2.796875 -2.128906 2.625 -2.195312 2.40625 -2.25 Z M 2.40625 -0.46875 "/></g></g></g><g fill="#ff3131" fill-opacity="1"><g transform="translate(40.05891, 88.915193)"><g><path d="M 4.3125 -3.515625 L 4.3125 -3.0625 L 3.484375 -3.0625 L 3.296875 -1.9375 L 4.125 -1.9375 L 4.125 -1.484375 L 3.21875 -1.484375 L 2.96875 0 L 2.46875 0 L 2.71875 -1.484375 L 1.5625 -1.484375 L 1.3125 0 L 0.8125 0 L 1.0625 -1.484375 L 0.3125 -1.484375 L 0.3125 -1.9375 L 1.140625 -1.9375 L 1.328125 -3.0625 L 0.5 -3.0625 L 0.5 -3.515625 L 1.40625 -3.515625 L 1.65625 -5 L 2.15625 -5 L 1.921875 -3.515625 L 3.0625 -3.515625 L 3.3125 -5 L 3.8125 -5 L 3.5625 -3.515625 Z M 1.640625 -1.9375 L 2.796875 -1.9375 L 2.984375 -3.0625 L 1.828125 -3.0625 Z M 1.640625 -1.9375 "/></g></g></g><g fill="#ff3131" fill-opacity="1"><g transform="translate(44.684257, 88.915193)"><g><path d="M 1.625 -3.28125 L 1.078125 -2.328125 L 0.609375 -2.671875 L 1.34375 -3.46875 L 1.328125 -3.546875 L 0.25 -3.765625 L 0.4375 -4.3125 L 1.421875 -3.875 L 1.484375 -3.90625 L 1.359375 -5 L 1.953125 -5 L 1.828125 -3.90625 L 1.890625 -3.875 L 2.890625 -4.328125 L 3.0625 -3.765625 L 2 -3.546875 L 1.96875 -3.46875 L 2.703125 -2.65625 L 2.234375 -2.328125 L 1.6875 -3.28125 Z M 1.625 -3.28125 "/></g></g></g><g fill="#ff3131" fill-opacity="1"><g transform="translate(47.987594, 88.915193)"><g><path d="M 1.421875 -2.28125 C 1.191406 -2.28125 0.992188 -2.328125 0.828125 -2.421875 C 0.660156 -2.523438 0.523438 -2.679688 0.421875 -2.890625 C 0.328125 -3.097656 0.28125 -3.359375 0.28125 -3.671875 C 0.28125 -4.140625 0.382812 -4.488281 0.59375 -4.71875 C 0.800781 -4.945312 1.078125 -5.0625 1.421875 -5.0625 C 1.640625 -5.0625 1.832031 -5.007812 2 -4.90625 C 2.175781 -4.8125 2.3125 -4.660156 2.40625 -4.453125 C 2.5 -4.253906 2.546875 -3.992188 2.546875 -3.671875 C 2.546875 -3.359375 2.5 -3.097656 2.40625 -2.890625 C 2.3125 -2.679688 2.175781 -2.523438 2 -2.421875 C 1.832031 -2.328125 1.640625 -2.28125 1.421875 -2.28125 Z M 1.53125 0 L 1.03125 0 L 1.015625 -0.078125 L 4.359375 -5 L 4.859375 -5 L 4.875 -4.921875 Z M 1.421875 -2.71875 C 1.640625 -2.71875 1.796875 -2.789062 1.890625 -2.9375 C 1.992188 -3.082031 2.046875 -3.328125 2.046875 -3.671875 C 2.046875 -4.023438 1.992188 -4.273438 1.890625 -4.421875 C 1.796875 -4.566406 1.640625 -4.640625 1.421875 -4.640625 C 1.273438 -4.640625 1.15625 -4.609375 1.0625 -4.546875 C 0.96875 -4.484375 0.894531 -4.378906 0.84375 -4.234375 C 0.800781 -4.097656 0.78125 -3.910156 0.78125 -3.671875 C 0.78125 -3.441406 0.800781 -3.253906 0.84375 -3.109375 C 0.894531 -2.972656 0.96875 -2.875 1.0625 -2.8125 C 1.15625 -2.75 1.273438 -2.71875 1.421875 -2.71875 Z M 4.484375 0.078125 C 4.140625 0.078125 3.863281 -0.0351562 3.65625 -0.265625 C 3.457031 -0.503906 3.359375 -0.851562 3.359375 -1.3125 C 3.359375 -1.78125 3.457031 -2.128906 3.65625 -2.359375 C 3.863281 -2.597656 4.140625 -2.71875 4.484375 -2.71875 C 4.710938 -2.71875 4.910156 -2.664062 5.078125 -2.5625 C 5.242188 -2.46875 5.375 -2.316406 5.46875 -2.109375 C 5.570312 -1.898438 5.625 -1.632812 5.625 -1.3125 C 5.625 -1 5.570312 -0.738281 5.46875 -0.53125 C 5.375 -0.320312 5.242188 -0.164062 5.078125 -0.0625 C 4.910156 0.03125 4.710938 0.078125 4.484375 0.078125 Z M 4.484375 -0.359375 C 4.703125 -0.359375 4.863281 -0.429688 4.96875 -0.578125 C 5.070312 -0.722656 5.125 -0.96875 5.125 -1.3125 C 5.125 -1.664062 5.070312 -1.914062 4.96875 -2.0625 C 4.863281 -2.207031 4.703125 -2.28125 4.484375 -2.28125 C 4.273438 -2.28125 4.117188 -2.207031 4.015625 -2.0625 C 3.910156 -1.914062 3.859375 -1.664062 3.859375 -1.3125 C 3.859375 -0.96875 3.910156 -0.722656 4.015625 -0.578125 C 4.117188 -0.429688 4.273438 -0.359375 4.484375 -0.359375 Z M 4.484375 -0.359375 "/></g></g></g><g fill="#ff3131" fill-opacity="1"><g transform="translate(53.893969, 88.915193)"><g><path d="M 1.359375 -1.65625 L 0.796875 -1.65625 L 0.796875 -5 L 1.359375 -5 Z M 1.078125 0.03125 C 0.941406 0.03125 0.835938 -0.00390625 0.765625 -0.078125 C 0.691406 -0.148438 0.65625 -0.242188 0.65625 -0.359375 C 0.65625 -0.484375 0.691406 -0.582031 0.765625 -0.65625 C 0.835938 -0.726562 0.941406 -0.765625 1.078125 -0.765625 C 1.210938 -0.765625 1.316406 -0.726562 1.390625 -0.65625 C 1.460938 -0.582031 1.5 -0.488281 1.5 -0.375 C 1.5 -0.25 1.457031 -0.148438 1.375 -0.078125 C 1.300781 -0.00390625 1.203125 0.03125 1.078125 0.03125 Z M 1.078125 0.03125 "/></g></g></g><g clip-path="url(#e50960c182)"><g clip-path="url(#b3b4532a16)"><path fill="#ffffff" d="M 57.628906 47.648438 L 77.894531 47.648438 L 77.894531 67.527344 L 57.628906 67.527344 Z M 57.628906 47.648438 " fill-opacity="1" fill-rule="nonzero"/></g></g><g clip-path="url(#0ee45fe2a6)"><g clip-path="url(#5430791cf1)"><path fill="#ffffff" d="M 13.976562 47.648438 L 34.242188 47.648438 L 34.242188 67.527344 L 13.976562 67.527344 Z M 13.976562 47.648438 " fill-opacity="1" fill-rule="nonzero"/></g></g><g fill="#000000" fill-opacity="1"><g transform="translate(145.441472, 68.83325)"><g><path d="M 5.546875 -30.796875 C 5.898438 -30.796875 6.210938 -30.664062 6.484375 -30.40625 C 6.765625 -30.144531 6.90625 -29.820312 6.90625 -29.4375 L 6.90625 -1.359375 C 6.875 -0.984375 6.71875 -0.660156 6.4375 -0.390625 C 6.164062 -0.128906 5.851562 0 5.5 0 C 5.09375 0 4.765625 -0.128906 4.515625 -0.390625 C 4.265625 -0.660156 4.140625 -0.984375 4.140625 -1.359375 L 4.140625 -29.4375 C 4.140625 -29.820312 4.269531 -30.144531 4.53125 -30.40625 C 4.789062 -30.664062 5.128906 -30.796875 5.546875 -30.796875 Z M 26.1875 -30.796875 C 26.59375 -30.796875 26.921875 -30.664062 27.171875 -30.40625 C 27.421875 -30.144531 27.546875 -29.820312 27.546875 -29.4375 L 27.546875 -1.359375 C 27.515625 -0.984375 27.375 -0.660156 27.125 -0.390625 C 26.875 -0.128906 26.546875 0 26.140625 0 C 25.753906 0 25.425781 -0.128906 25.15625 -0.390625 C 24.894531 -0.660156 24.765625 -0.984375 24.765625 -1.359375 L 24.765625 -29.4375 C 24.765625 -29.820312 24.90625 -30.144531 25.1875 -30.40625 C 25.46875 -30.664062 25.800781 -30.796875 26.1875 -30.796875 Z M 5.328125 -17.03125 L 26.21875 -17.03125 L 26.1875 -14.46875 L 5.140625 -14.46875 Z M 5.328125 -17.03125 "/></g></g></g><g fill="#000000" fill-opacity="1"><g transform="translate(177.115833, 68.83325)"><g><path d="M 21.90625 -22.484375 C 22.289062 -22.484375 22.609375 -22.347656 22.859375 -22.078125 C 23.109375 -21.816406 23.234375 -21.5 23.234375 -21.125 L 23.234375 -1.3125 C 23.234375 -0.96875 23.097656 -0.660156 22.828125 -0.390625 C 22.566406 -0.128906 22.257812 0 21.90625 0 C 21.53125 0 21.21875 -0.128906 20.96875 -0.390625 C 20.71875 -0.660156 20.59375 -0.96875 20.59375 -1.3125 L 20.59375 -6.5625 L 21.34375 -6.90625 C 21.34375 -6.082031 21.113281 -5.242188 20.65625 -4.390625 C 20.195312 -3.546875 19.570312 -2.753906 18.78125 -2.015625 C 17.988281 -1.285156 17.054688 -0.691406 15.984375 -0.234375 C 14.921875 0.210938 13.773438 0.4375 12.546875 0.4375 C 10.546875 0.4375 8.757812 -0.0703125 7.1875 -1.09375 C 5.625 -2.125 4.394531 -3.535156 3.5 -5.328125 C 2.601562 -7.117188 2.15625 -9.128906 2.15625 -11.359375 C 2.15625 -13.640625 2.609375 -15.648438 3.515625 -17.390625 C 4.429688 -19.140625 5.664062 -20.515625 7.21875 -21.515625 C 8.769531 -22.515625 10.53125 -23.015625 12.5 -23.015625 C 13.757812 -23.015625 14.9375 -22.789062 16.03125 -22.34375 C 17.132812 -21.90625 18.097656 -21.304688 18.921875 -20.546875 C 19.742188 -19.785156 20.378906 -18.910156 20.828125 -17.921875 C 21.285156 -16.941406 21.515625 -15.925781 21.515625 -14.875 L 20.59375 -15.53125 L 20.59375 -21.125 C 20.59375 -21.5 20.71875 -21.816406 20.96875 -22.078125 C 21.21875 -22.347656 21.53125 -22.484375 21.90625 -22.484375 Z M 12.765625 -2.03125 C 14.316406 -2.03125 15.691406 -2.429688 16.890625 -3.234375 C 18.097656 -4.035156 19.046875 -5.148438 19.734375 -6.578125 C 20.421875 -8.003906 20.765625 -9.597656 20.765625 -11.359375 C 20.765625 -13.085938 20.421875 -14.640625 19.734375 -16.015625 C 19.046875 -17.390625 18.097656 -18.488281 16.890625 -19.3125 C 15.691406 -20.132812 14.316406 -20.546875 12.765625 -20.546875 C 11.234375 -20.546875 9.859375 -20.148438 8.640625 -19.359375 C 7.421875 -18.566406 6.46875 -17.476562 5.78125 -16.09375 C 5.09375 -14.71875 4.75 -13.140625 4.75 -11.359375 C 4.75 -9.597656 5.09375 -8.003906 5.78125 -6.578125 C 6.46875 -5.148438 7.410156 -4.035156 8.609375 -3.234375 C 9.816406 -2.429688 11.203125 -2.03125 12.765625 -2.03125 Z M 12.765625 -2.03125 "/></g></g></g><g fill="#000000" fill-opacity="1"><g transform="translate(203.775084, 68.83325)"><g><path d="M 12.625 0.4375 C 10.394531 0.46875 8.457031 0.117188 6.8125 -0.609375 C 5.175781 -1.347656 3.609375 -2.453125 2.109375 -3.921875 C 1.960938 -4.035156 1.835938 -4.179688 1.734375 -4.359375 C 1.628906 -4.535156 1.578125 -4.738281 1.578125 -4.96875 C 1.578125 -5.320312 1.71875 -5.644531 2 -5.9375 C 2.28125 -6.226562 2.597656 -6.375 2.953125 -6.375 C 3.296875 -6.375 3.617188 -6.226562 3.921875 -5.9375 C 5.054688 -4.707031 6.347656 -3.769531 7.796875 -3.125 C 9.253906 -2.476562 10.820312 -2.15625 12.5 -2.15625 C 13.90625 -2.15625 15.15625 -2.375 16.25 -2.8125 C 17.351562 -3.25 18.226562 -3.878906 18.875 -4.703125 C 19.519531 -5.523438 19.84375 -6.476562 19.84375 -7.5625 C 19.84375 -8.914062 19.472656 -10.007812 18.734375 -10.84375 C 18.003906 -11.675781 17.035156 -12.363281 15.828125 -12.90625 C 14.628906 -13.457031 13.300781 -13.953125 11.84375 -14.390625 C 10.632812 -14.742188 9.488281 -15.144531 8.40625 -15.59375 C 7.320312 -16.050781 6.351562 -16.609375 5.5 -17.265625 C 4.644531 -17.929688 3.984375 -18.742188 3.515625 -19.703125 C 3.046875 -20.671875 2.8125 -21.847656 2.8125 -23.234375 C 2.8125 -24.785156 3.222656 -26.160156 4.046875 -27.359375 C 4.867188 -28.566406 6.035156 -29.515625 7.546875 -30.203125 C 9.054688 -30.890625 10.804688 -31.234375 12.796875 -31.234375 C 14.535156 -31.234375 16.203125 -30.941406 17.796875 -30.359375 C 19.398438 -29.773438 20.671875 -28.910156 21.609375 -27.765625 C 22.046875 -27.296875 22.265625 -26.867188 22.265625 -26.484375 C 22.265625 -26.191406 22.117188 -25.898438 21.828125 -25.609375 C 21.535156 -25.316406 21.210938 -25.171875 20.859375 -25.171875 C 20.566406 -25.171875 20.316406 -25.269531 20.109375 -25.46875 C 19.609375 -26.09375 18.976562 -26.644531 18.21875 -27.125 C 17.457031 -27.613281 16.613281 -27.988281 15.6875 -28.25 C 14.757812 -28.507812 13.796875 -28.640625 12.796875 -28.640625 C 11.421875 -28.640625 10.179688 -28.425781 9.078125 -28 C 7.984375 -27.582031 7.117188 -26.972656 6.484375 -26.171875 C 5.859375 -25.378906 5.546875 -24.425781 5.546875 -23.3125 C 5.546875 -22.082031 5.894531 -21.070312 6.59375 -20.28125 C 7.300781 -19.488281 8.226562 -18.835938 9.375 -18.328125 C 10.519531 -17.816406 11.738281 -17.335938 13.03125 -16.890625 C 14.289062 -16.546875 15.5 -16.144531 16.65625 -15.6875 C 17.8125 -15.226562 18.835938 -14.660156 19.734375 -13.984375 C 20.628906 -13.316406 21.332031 -12.46875 21.84375 -11.4375 C 22.351562 -10.414062 22.609375 -9.125 22.609375 -7.5625 C 22.609375 -6.070312 22.179688 -4.722656 21.328125 -3.515625 C 20.484375 -2.316406 19.320312 -1.363281 17.84375 -0.65625 C 16.363281 0.0390625 14.625 0.40625 12.625 0.4375 Z M 12.625 0.4375 "/></g></g></g><g fill="#000000" fill-opacity="1"><g transform="translate(228.498681, 68.83325)"><g><path d="M 15.890625 -30.796875 C 17.523438 -30.796875 18.972656 -30.421875 20.234375 -29.671875 C 21.492188 -28.929688 22.488281 -27.898438 23.21875 -26.578125 C 23.957031 -25.253906 24.328125 -23.742188 24.328125 -22.046875 C 24.328125 -20.335938 23.957031 -18.800781 23.21875 -17.4375 C 22.488281 -16.082031 21.492188 -15.007812 20.234375 -14.21875 C 18.972656 -13.425781 17.523438 -13.03125 15.890625 -13.03125 L 6.5625 -13.03125 L 6.78125 -13.46875 L 6.78125 -1.3125 C 6.78125 -0.96875 6.644531 -0.660156 6.375 -0.390625 C 6.113281 -0.128906 5.804688 0 5.453125 0 C 5.046875 0 4.722656 -0.128906 4.484375 -0.390625 C 4.253906 -0.660156 4.140625 -0.96875 4.140625 -1.3125 L 4.140625 -29.484375 C 4.140625 -29.835938 4.269531 -30.144531 4.53125 -30.40625 C 4.789062 -30.664062 5.097656 -30.796875 5.453125 -30.796875 Z M 15.890625 -15.578125 C 17.023438 -15.578125 18.019531 -15.863281 18.875 -16.4375 C 19.726562 -17.007812 20.394531 -17.785156 20.875 -18.765625 C 21.363281 -19.742188 21.609375 -20.835938 21.609375 -22.046875 C 21.609375 -23.242188 21.363281 -24.304688 20.875 -25.234375 C 20.394531 -26.160156 19.726562 -26.882812 18.875 -27.40625 C 18.019531 -27.9375 17.023438 -28.203125 15.890625 -28.203125 L 6.5625 -28.203125 L 6.78125 -28.59375 L 6.78125 -15.3125 L 6.515625 -15.578125 Z M 15.890625 -15.578125 "/></g></g></g><g fill="#000000" fill-opacity="1"><g transform="translate(254.718009, 68.83325)"><g><path d="M 6.90625 -1.359375 C 6.875 -0.984375 6.71875 -0.660156 6.4375 -0.390625 C 6.164062 -0.128906 5.851562 0 5.5 0 C 5.09375 0 4.765625 -0.128906 4.515625 -0.390625 C 4.265625 -0.660156 4.140625 -0.984375 4.140625 -1.359375 L 4.140625 -29.4375 C 4.140625 -29.820312 4.269531 -30.144531 4.53125 -30.40625 C 4.789062 -30.664062 5.128906 -30.796875 5.546875 -30.796875 C 5.898438 -30.796875 6.210938 -30.664062 6.484375 -30.40625 C 6.765625 -30.144531 6.90625 -29.820312 6.90625 -29.4375 Z M 6.90625 -1.359375 "/></g></g></g><g fill="#000000" fill-opacity="1"><g transform="translate(117.216485, 89.115151)"><g><path d="M 1.140625 -6.296875 C 1.203125 -6.296875 1.257812 -6.269531 1.3125 -6.21875 C 1.375 -6.164062 1.40625 -6.097656 1.40625 -6.015625 L 1.40625 -0.28125 C 1.40625 -0.195312 1.375 -0.128906 1.3125 -0.078125 C 1.257812 -0.0234375 1.195312 0 1.125 0 C 1.039062 0 0.972656 -0.0234375 0.921875 -0.078125 C 0.867188 -0.128906 0.84375 -0.195312 0.84375 -0.28125 L 0.84375 -6.015625 C 0.84375 -6.097656 0.867188 -6.164062 0.921875 -6.21875 C 0.984375 -6.269531 1.054688 -6.296875 1.140625 -6.296875 Z M 5.359375 -6.296875 C 5.441406 -6.296875 5.507812 -6.269531 5.5625 -6.21875 C 5.613281 -6.164062 5.640625 -6.097656 5.640625 -6.015625 L 5.640625 -0.28125 C 5.628906 -0.195312 5.597656 -0.128906 5.546875 -0.078125 C 5.492188 -0.0234375 5.425781 0 5.34375 0 C 5.269531 0 5.203125 -0.0234375 5.140625 -0.078125 C 5.085938 -0.128906 5.0625 -0.195312 5.0625 -0.28125 L 5.0625 -6.015625 C 5.0625 -6.097656 5.085938 -6.164062 5.140625 -6.21875 C 5.203125 -6.269531 5.273438 -6.296875 5.359375 -6.296875 Z M 1.09375 -3.484375 L 5.359375 -3.484375 L 5.359375 -2.96875 L 1.046875 -2.96875 Z M 1.09375 -3.484375 "/></g></g></g><g fill="#000000" fill-opacity="1"><g transform="translate(123.69653, 89.115151)"><g><path d="M 4.484375 -4.59375 C 4.554688 -4.59375 4.617188 -4.566406 4.671875 -4.515625 C 4.722656 -4.460938 4.75 -4.394531 4.75 -4.3125 L 4.75 -0.265625 C 4.75 -0.191406 4.722656 -0.128906 4.671875 -0.078125 C 4.617188 -0.0234375 4.554688 0 4.484375 0 C 4.398438 0 4.332031 -0.0234375 4.28125 -0.078125 C 4.238281 -0.128906 4.21875 -0.191406 4.21875 -0.265625 L 4.21875 -1.34375 L 4.359375 -1.40625 C 4.359375 -1.238281 4.3125 -1.066406 4.21875 -0.890625 C 4.132812 -0.722656 4.007812 -0.5625 3.84375 -0.40625 C 3.675781 -0.257812 3.484375 -0.140625 3.265625 -0.046875 C 3.046875 0.046875 2.8125 0.09375 2.5625 0.09375 C 2.15625 0.09375 1.789062 -0.0078125 1.46875 -0.21875 C 1.144531 -0.4375 0.890625 -0.726562 0.703125 -1.09375 C 0.523438 -1.457031 0.4375 -1.867188 0.4375 -2.328125 C 0.4375 -2.796875 0.53125 -3.207031 0.71875 -3.5625 C 0.90625 -3.914062 1.15625 -4.191406 1.46875 -4.390625 C 1.789062 -4.597656 2.15625 -4.703125 2.5625 -4.703125 C 2.8125 -4.703125 3.050781 -4.65625 3.28125 -4.5625 C 3.507812 -4.476562 3.707031 -4.359375 3.875 -4.203125 C 4.039062 -4.046875 4.171875 -3.863281 4.265625 -3.65625 C 4.359375 -3.457031 4.40625 -3.253906 4.40625 -3.046875 L 4.21875 -3.171875 L 4.21875 -4.3125 C 4.21875 -4.394531 4.238281 -4.460938 4.28125 -4.515625 C 4.332031 -4.566406 4.398438 -4.59375 4.484375 -4.59375 Z M 2.609375 -0.40625 C 2.929688 -0.40625 3.210938 -0.488281 3.453125 -0.65625 C 3.703125 -0.820312 3.894531 -1.050781 4.03125 -1.34375 C 4.175781 -1.632812 4.25 -1.960938 4.25 -2.328125 C 4.25 -2.679688 4.175781 -3 4.03125 -3.28125 C 3.894531 -3.5625 3.703125 -3.785156 3.453125 -3.953125 C 3.210938 -4.117188 2.929688 -4.203125 2.609375 -4.203125 C 2.296875 -4.203125 2.015625 -4.117188 1.765625 -3.953125 C 1.515625 -3.796875 1.316406 -3.578125 1.171875 -3.296875 C 1.035156 -3.015625 0.96875 -2.691406 0.96875 -2.328125 C 0.96875 -1.960938 1.035156 -1.632812 1.171875 -1.34375 C 1.316406 -1.050781 1.515625 -0.820312 1.765625 -0.65625 C 2.015625 -0.488281 2.296875 -0.40625 2.609375 -0.40625 Z M 2.609375 -0.40625 "/></g></g></g><g fill="#000000" fill-opacity="1"><g transform="translate(129.150566, 89.115151)"><g><path d="M 0.40625 -4.578125 L 2.515625 -4.578125 C 2.585938 -4.578125 2.644531 -4.550781 2.6875 -4.5 C 2.738281 -4.445312 2.765625 -4.382812 2.765625 -4.3125 C 2.765625 -4.25 2.738281 -4.191406 2.6875 -4.140625 C 2.644531 -4.097656 2.585938 -4.078125 2.515625 -4.078125 L 0.40625 -4.078125 C 0.34375 -4.078125 0.285156 -4.101562 0.234375 -4.15625 C 0.179688 -4.207031 0.15625 -4.265625 0.15625 -4.328125 C 0.15625 -4.398438 0.179688 -4.457031 0.234375 -4.5 C 0.285156 -4.550781 0.34375 -4.578125 0.40625 -4.578125 Z M 1.34375 -5.84375 C 1.414062 -5.84375 1.476562 -5.816406 1.53125 -5.765625 C 1.582031 -5.710938 1.609375 -5.648438 1.609375 -5.578125 L 1.609375 -1.0625 C 1.609375 -0.894531 1.628906 -0.769531 1.671875 -0.6875 C 1.722656 -0.601562 1.785156 -0.546875 1.859375 -0.515625 C 1.929688 -0.492188 2 -0.484375 2.0625 -0.484375 C 2.113281 -0.484375 2.160156 -0.488281 2.203125 -0.5 C 2.242188 -0.507812 2.285156 -0.515625 2.328125 -0.515625 C 2.378906 -0.515625 2.425781 -0.492188 2.46875 -0.453125 C 2.507812 -0.410156 2.53125 -0.359375 2.53125 -0.296875 C 2.53125 -0.210938 2.476562 -0.140625 2.375 -0.078125 C 2.28125 -0.0234375 2.171875 0 2.046875 0 C 1.992188 0 1.910156 -0.00390625 1.796875 -0.015625 C 1.691406 -0.0234375 1.582031 -0.0546875 1.46875 -0.109375 C 1.351562 -0.171875 1.257812 -0.269531 1.1875 -0.40625 C 1.113281 -0.550781 1.078125 -0.757812 1.078125 -1.03125 L 1.078125 -5.578125 C 1.078125 -5.648438 1.097656 -5.710938 1.140625 -5.765625 C 1.191406 -5.816406 1.257812 -5.84375 1.34375 -5.84375 Z M 1.34375 -5.84375 "/></g></g></g><g fill="#000000" fill-opacity="1"><g transform="translate(132.201584, 89.115151)"><g><path d="M 2.796875 0.09375 C 2.328125 0.09375 1.914062 -0.00390625 1.5625 -0.203125 C 1.207031 -0.398438 0.929688 -0.675781 0.734375 -1.03125 C 0.535156 -1.382812 0.4375 -1.800781 0.4375 -2.28125 C 0.4375 -2.789062 0.535156 -3.222656 0.734375 -3.578125 C 0.941406 -3.941406 1.203125 -4.21875 1.515625 -4.40625 C 1.835938 -4.601562 2.179688 -4.703125 2.546875 -4.703125 C 2.804688 -4.703125 3.0625 -4.65625 3.3125 -4.5625 C 3.5625 -4.46875 3.785156 -4.328125 3.984375 -4.140625 C 4.179688 -3.960938 4.335938 -3.742188 4.453125 -3.484375 C 4.566406 -3.222656 4.628906 -2.914062 4.640625 -2.5625 C 4.640625 -2.488281 4.609375 -2.425781 4.546875 -2.375 C 4.492188 -2.320312 4.429688 -2.296875 4.359375 -2.296875 L 0.75 -2.296875 L 0.640625 -2.796875 L 4.1875 -2.796875 L 4.078125 -2.6875 L 4.078125 -2.859375 C 4.054688 -3.140625 3.96875 -3.378906 3.8125 -3.578125 C 3.65625 -3.773438 3.460938 -3.925781 3.234375 -4.03125 C 3.015625 -4.132812 2.785156 -4.1875 2.546875 -4.1875 C 2.367188 -4.1875 2.179688 -4.148438 1.984375 -4.078125 C 1.796875 -4.003906 1.625 -3.890625 1.46875 -3.734375 C 1.320312 -3.585938 1.203125 -3.394531 1.109375 -3.15625 C 1.015625 -2.914062 0.96875 -2.632812 0.96875 -2.3125 C 0.96875 -1.957031 1.035156 -1.632812 1.171875 -1.34375 C 1.316406 -1.0625 1.523438 -0.832031 1.796875 -0.65625 C 2.078125 -0.488281 2.40625 -0.40625 2.78125 -0.40625 C 2.988281 -0.40625 3.175781 -0.4375 3.34375 -0.5 C 3.507812 -0.5625 3.65625 -0.640625 3.78125 -0.734375 C 3.914062 -0.835938 4.023438 -0.941406 4.109375 -1.046875 C 4.171875 -1.109375 4.234375 -1.140625 4.296875 -1.140625 C 4.359375 -1.140625 4.410156 -1.113281 4.453125 -1.0625 C 4.503906 -1.007812 4.53125 -0.957031 4.53125 -0.90625 C 4.53125 -0.832031 4.5 -0.769531 4.4375 -0.71875 C 4.257812 -0.5 4.023438 -0.304688 3.734375 -0.140625 C 3.441406 0.015625 3.128906 0.09375 2.796875 0.09375 Z M 2.796875 0.09375 "/></g></g></g><g fill="#000000" fill-opacity="1"><g transform="translate(137.286617, 89.115151)"><g/></g></g><g fill="#000000" fill-opacity="1"><g transform="translate(139.743629, 89.115151)"><g><path d="M 2.578125 0.09375 C 2.128906 0.09375 1.734375 0.0195312 1.390625 -0.125 C 1.054688 -0.269531 0.738281 -0.492188 0.4375 -0.796875 C 0.40625 -0.828125 0.378906 -0.859375 0.359375 -0.890625 C 0.335938 -0.921875 0.328125 -0.960938 0.328125 -1.015625 C 0.328125 -1.085938 0.351562 -1.15625 0.40625 -1.21875 C 0.46875 -1.28125 0.535156 -1.3125 0.609375 -1.3125 C 0.679688 -1.3125 0.742188 -1.28125 0.796875 -1.21875 C 1.035156 -0.96875 1.300781 -0.773438 1.59375 -0.640625 C 1.894531 -0.503906 2.21875 -0.4375 2.5625 -0.4375 C 2.84375 -0.4375 3.09375 -0.484375 3.3125 -0.578125 C 3.539062 -0.671875 3.722656 -0.800781 3.859375 -0.96875 C 3.992188 -1.132812 4.0625 -1.328125 4.0625 -1.546875 C 4.0625 -1.828125 3.984375 -2.050781 3.828125 -2.21875 C 3.679688 -2.382812 3.484375 -2.523438 3.234375 -2.640625 C 2.992188 -2.753906 2.722656 -2.851562 2.421875 -2.9375 C 2.171875 -3.007812 1.9375 -3.09375 1.71875 -3.1875 C 1.5 -3.28125 1.300781 -3.394531 1.125 -3.53125 C 0.945312 -3.664062 0.8125 -3.832031 0.71875 -4.03125 C 0.625 -4.226562 0.578125 -4.46875 0.578125 -4.75 C 0.578125 -5.070312 0.660156 -5.351562 0.828125 -5.59375 C 0.992188 -5.84375 1.226562 -6.035156 1.53125 -6.171875 C 1.84375 -6.316406 2.207031 -6.390625 2.625 -6.390625 C 2.976562 -6.390625 3.316406 -6.328125 3.640625 -6.203125 C 3.960938 -6.085938 4.222656 -5.910156 4.421875 -5.671875 C 4.503906 -5.578125 4.546875 -5.492188 4.546875 -5.421875 C 4.546875 -5.359375 4.515625 -5.296875 4.453125 -5.234375 C 4.398438 -5.171875 4.335938 -5.140625 4.265625 -5.140625 C 4.203125 -5.140625 4.148438 -5.164062 4.109375 -5.21875 C 4.003906 -5.34375 3.875 -5.453125 3.71875 -5.546875 C 3.5625 -5.648438 3.390625 -5.726562 3.203125 -5.78125 C 3.015625 -5.832031 2.820312 -5.859375 2.625 -5.859375 C 2.34375 -5.859375 2.085938 -5.8125 1.859375 -5.71875 C 1.628906 -5.632812 1.453125 -5.507812 1.328125 -5.34375 C 1.203125 -5.1875 1.140625 -4.992188 1.140625 -4.765625 C 1.140625 -4.515625 1.207031 -4.304688 1.34375 -4.140625 C 1.488281 -3.984375 1.675781 -3.851562 1.90625 -3.75 C 2.144531 -3.644531 2.394531 -3.546875 2.65625 -3.453125 C 2.914062 -3.378906 3.164062 -3.296875 3.40625 -3.203125 C 3.644531 -3.109375 3.851562 -2.992188 4.03125 -2.859375 C 4.21875 -2.722656 4.363281 -2.550781 4.46875 -2.34375 C 4.570312 -2.132812 4.625 -1.867188 4.625 -1.546875 C 4.625 -1.242188 4.535156 -0.96875 4.359375 -0.71875 C 4.191406 -0.46875 3.953125 -0.269531 3.640625 -0.125 C 3.335938 0.0078125 2.984375 0.0820312 2.578125 0.09375 Z M 2.578125 0.09375 "/></g></g></g><g fill="#000000" fill-opacity="1"><g transform="translate(144.801666, 89.115151)"><g><path d="M 2.890625 -4.640625 C 3.304688 -4.640625 3.671875 -4.535156 3.984375 -4.328125 C 4.296875 -4.128906 4.546875 -3.851562 4.734375 -3.5 C 4.921875 -3.15625 5.015625 -2.753906 5.015625 -2.296875 C 5.015625 -1.835938 4.921875 -1.429688 4.734375 -1.078125 C 4.546875 -0.722656 4.289062 -0.441406 3.96875 -0.234375 C 3.65625 -0.0351562 3.300781 0.0625 2.90625 0.0625 C 2.695312 0.0625 2.5 0.03125 2.3125 -0.03125 C 2.125 -0.09375 1.953125 -0.175781 1.796875 -0.28125 C 1.640625 -0.394531 1.5 -0.523438 1.375 -0.671875 C 1.257812 -0.816406 1.164062 -0.976562 1.09375 -1.15625 L 1.25 -1.265625 L 1.25 1.53125 C 1.25 1.601562 1.222656 1.664062 1.171875 1.71875 C 1.117188 1.769531 1.054688 1.796875 0.984375 1.796875 C 0.898438 1.796875 0.832031 1.769531 0.78125 1.71875 C 0.738281 1.664062 0.71875 1.601562 0.71875 1.53125 L 0.71875 -4.34375 C 0.71875 -4.414062 0.738281 -4.476562 0.78125 -4.53125 C 0.832031 -4.582031 0.898438 -4.609375 0.984375 -4.609375 C 1.054688 -4.609375 1.117188 -4.582031 1.171875 -4.53125 C 1.222656 -4.476562 1.25 -4.414062 1.25 -4.34375 L 1.25 -3.359375 L 1.125 -3.4375 C 1.1875 -3.625 1.273438 -3.789062 1.390625 -3.9375 C 1.503906 -4.082031 1.640625 -4.207031 1.796875 -4.3125 C 1.953125 -4.414062 2.125 -4.492188 2.3125 -4.546875 C 2.5 -4.609375 2.691406 -4.640625 2.890625 -4.640625 Z M 2.859375 -4.125 C 2.523438 -4.125 2.234375 -4.046875 1.984375 -3.890625 C 1.742188 -3.734375 1.550781 -3.515625 1.40625 -3.234375 C 1.269531 -2.960938 1.203125 -2.648438 1.203125 -2.296875 C 1.203125 -1.941406 1.269531 -1.625 1.40625 -1.34375 C 1.550781 -1.0625 1.742188 -0.835938 1.984375 -0.671875 C 2.234375 -0.515625 2.523438 -0.4375 2.859375 -0.4375 C 3.171875 -0.4375 3.445312 -0.515625 3.6875 -0.671875 C 3.9375 -0.835938 4.128906 -1.0625 4.265625 -1.34375 C 4.410156 -1.625 4.484375 -1.941406 4.484375 -2.296875 C 4.484375 -2.648438 4.410156 -2.960938 4.265625 -3.234375 C 4.128906 -3.515625 3.9375 -3.734375 3.6875 -3.890625 C 3.445312 -4.046875 3.171875 -4.125 2.859375 -4.125 Z M 2.859375 -4.125 "/></g></g></g><g fill="#000000" fill-opacity="1"><g transform="translate(150.255702, 89.115151)"><g><path d="M 2.796875 0.09375 C 2.328125 0.09375 1.914062 -0.00390625 1.5625 -0.203125 C 1.207031 -0.398438 0.929688 -0.675781 0.734375 -1.03125 C 0.535156 -1.382812 0.4375 -1.800781 0.4375 -2.28125 C 0.4375 -2.789062 0.535156 -3.222656 0.734375 -3.578125 C 0.941406 -3.941406 1.203125 -4.21875 1.515625 -4.40625 C 1.835938 -4.601562 2.179688 -4.703125 2.546875 -4.703125 C 2.804688 -4.703125 3.0625 -4.65625 3.3125 -4.5625 C 3.5625 -4.46875 3.785156 -4.328125 3.984375 -4.140625 C 4.179688 -3.960938 4.335938 -3.742188 4.453125 -3.484375 C 4.566406 -3.222656 4.628906 -2.914062 4.640625 -2.5625 C 4.640625 -2.488281 4.609375 -2.425781 4.546875 -2.375 C 4.492188 -2.320312 4.429688 -2.296875 4.359375 -2.296875 L 0.75 -2.296875 L 0.640625 -2.796875 L 4.1875 -2.796875 L 4.078125 -2.6875 L 4.078125 -2.859375 C 4.054688 -3.140625 3.96875 -3.378906 3.8125 -3.578125 C 3.65625 -3.773438 3.460938 -3.925781 3.234375 -4.03125 C 3.015625 -4.132812 2.785156 -4.1875 2.546875 -4.1875 C 2.367188 -4.1875 2.179688 -4.148438 1.984375 -4.078125 C 1.796875 -4.003906 1.625 -3.890625 1.46875 -3.734375 C 1.320312 -3.585938 1.203125 -3.394531 1.109375 -3.15625 C 1.015625 -2.914062 0.96875 -2.632812 0.96875 -2.3125 C 0.96875 -1.957031 1.035156 -1.632812 1.171875 -1.34375 C 1.316406 -1.0625 1.523438 -0.832031 1.796875 -0.65625 C 2.078125 -0.488281 2.40625 -0.40625 2.78125 -0.40625 C 2.988281 -0.40625 3.175781 -0.4375 3.34375 -0.5 C 3.507812 -0.5625 3.65625 -0.640625 3.78125 -0.734375 C 3.914062 -0.835938 4.023438 -0.941406 4.109375 -1.046875 C 4.171875 -1.109375 4.234375 -1.140625 4.296875 -1.140625 C 4.359375 -1.140625 4.410156 -1.113281 4.453125 -1.0625 C 4.503906 -1.007812 4.53125 -0.957031 4.53125 -0.90625 C 4.53125 -0.832031 4.5 -0.769531 4.4375 -0.71875 C 4.257812 -0.5 4.023438 -0.304688 3.734375 -0.140625 C 3.441406 0.015625 3.128906 0.09375 2.796875 0.09375 Z M 2.796875 0.09375 "/></g></g></g><g fill="#000000" fill-opacity="1"><g transform="translate(155.340736, 89.115151)"><g><path d="M 2.796875 0.09375 C 2.328125 0.09375 1.914062 -0.00390625 1.5625 -0.203125 C 1.207031 -0.398438 0.929688 -0.675781 0.734375 -1.03125 C 0.535156 -1.382812 0.4375 -1.800781 0.4375 -2.28125 C 0.4375 -2.789062 0.535156 -3.222656 0.734375 -3.578125 C 0.941406 -3.941406 1.203125 -4.21875 1.515625 -4.40625 C 1.835938 -4.601562 2.179688 -4.703125 2.546875 -4.703125 C 2.804688 -4.703125 3.0625 -4.65625 3.3125 -4.5625 C 3.5625 -4.46875 3.785156 -4.328125 3.984375 -4.140625 C 4.179688 -3.960938 4.335938 -3.742188 4.453125 -3.484375 C 4.566406 -3.222656 4.628906 -2.914062 4.640625 -2.5625 C 4.640625 -2.488281 4.609375 -2.425781 4.546875 -2.375 C 4.492188 -2.320312 4.429688 -2.296875 4.359375 -2.296875 L 0.75 -2.296875 L 0.640625 -2.796875 L 4.1875 -2.796875 L 4.078125 -2.6875 L 4.078125 -2.859375 C 4.054688 -3.140625 3.96875 -3.378906 3.8125 -3.578125 C 3.65625 -3.773438 3.460938 -3.925781 3.234375 -4.03125 C 3.015625 -4.132812 2.785156 -4.1875 2.546875 -4.1875 C 2.367188 -4.1875 2.179688 -4.148438 1.984375 -4.078125 C 1.796875 -4.003906 1.625 -3.890625 1.46875 -3.734375 C 1.320312 -3.585938 1.203125 -3.394531 1.109375 -3.15625 C 1.015625 -2.914062 0.96875 -2.632812 0.96875 -2.3125 C 0.96875 -1.957031 1.035156 -1.632812 1.171875 -1.34375 C 1.316406 -1.0625 1.523438 -0.832031 1.796875 -0.65625 C 2.078125 -0.488281 2.40625 -0.40625 2.78125 -0.40625 C 2.988281 -0.40625 3.175781 -0.4375 3.34375 -0.5 C 3.507812 -0.5625 3.65625 -0.640625 3.78125 -0.734375 C 3.914062 -0.835938 4.023438 -0.941406 4.109375 -1.046875 C 4.171875 -1.109375 4.234375 -1.140625 4.296875 -1.140625 C 4.359375 -1.140625 4.410156 -1.113281 4.453125 -1.0625 C 4.503906 -1.007812 4.53125 -0.957031 4.53125 -0.90625 C 4.53125 -0.832031 4.5 -0.769531 4.4375 -0.71875 C 4.257812 -0.5 4.023438 -0.304688 3.734375 -0.140625 C 3.441406 0.015625 3.128906 0.09375 2.796875 0.09375 Z M 2.796875 0.09375 "/></g></g></g><g fill="#000000" fill-opacity="1"><g transform="translate(160.425769, 89.115151)"><g><path d="M 2.734375 -4.703125 C 3.023438 -4.703125 3.289062 -4.671875 3.53125 -4.609375 C 3.769531 -4.546875 3.960938 -4.457031 4.109375 -4.34375 C 4.253906 -4.238281 4.328125 -4.125 4.328125 -4 C 4.328125 -3.945312 4.304688 -3.890625 4.265625 -3.828125 C 4.222656 -3.773438 4.164062 -3.75 4.09375 -3.75 C 4.019531 -3.75 3.960938 -3.765625 3.921875 -3.796875 C 3.878906 -3.835938 3.832031 -3.878906 3.78125 -3.921875 C 3.738281 -3.972656 3.675781 -4.019531 3.59375 -4.0625 C 3.507812 -4.09375 3.394531 -4.125 3.25 -4.15625 C 3.113281 -4.1875 2.953125 -4.203125 2.765625 -4.203125 C 2.429688 -4.203125 2.128906 -4.117188 1.859375 -3.953125 C 1.585938 -3.785156 1.375 -3.554688 1.21875 -3.265625 C 1.0625 -2.984375 0.984375 -2.664062 0.984375 -2.3125 C 0.984375 -1.945312 1.054688 -1.617188 1.203125 -1.328125 C 1.359375 -1.046875 1.566406 -0.820312 1.828125 -0.65625 C 2.085938 -0.488281 2.394531 -0.40625 2.75 -0.40625 C 2.988281 -0.40625 3.175781 -0.425781 3.3125 -0.46875 C 3.445312 -0.519531 3.5625 -0.570312 3.65625 -0.625 C 3.769531 -0.6875 3.851562 -0.75 3.90625 -0.8125 C 3.957031 -0.875 4.023438 -0.90625 4.109375 -0.90625 C 4.179688 -0.90625 4.238281 -0.882812 4.28125 -0.84375 C 4.320312 -0.800781 4.34375 -0.742188 4.34375 -0.671875 C 4.34375 -0.566406 4.269531 -0.457031 4.125 -0.34375 C 3.988281 -0.226562 3.796875 -0.125 3.546875 -0.03125 C 3.296875 0.0507812 3.015625 0.09375 2.703125 0.09375 C 2.253906 0.09375 1.859375 -0.0078125 1.515625 -0.21875 C 1.179688 -0.4375 0.914062 -0.722656 0.71875 -1.078125 C 0.53125 -1.441406 0.4375 -1.851562 0.4375 -2.3125 C 0.4375 -2.75 0.53125 -3.144531 0.71875 -3.5 C 0.914062 -3.863281 1.1875 -4.15625 1.53125 -4.375 C 1.875 -4.59375 2.273438 -4.703125 2.734375 -4.703125 Z M 2.734375 -4.703125 "/></g></g></g><g fill="#000000" fill-opacity="1"><g transform="translate(165.087805, 89.115151)"><g><path d="M 2.8125 -4.640625 C 3.1875 -4.640625 3.488281 -4.554688 3.71875 -4.390625 C 3.957031 -4.234375 4.128906 -4.015625 4.234375 -3.734375 C 4.347656 -3.460938 4.40625 -3.15625 4.40625 -2.8125 L 4.40625 -0.265625 C 4.40625 -0.191406 4.378906 -0.128906 4.328125 -0.078125 C 4.273438 -0.0234375 4.210938 0 4.140625 0 C 4.054688 0 3.988281 -0.0234375 3.9375 -0.078125 C 3.894531 -0.128906 3.875 -0.191406 3.875 -0.265625 L 3.875 -2.8125 C 3.875 -3.0625 3.832031 -3.285156 3.75 -3.484375 C 3.675781 -3.679688 3.554688 -3.835938 3.390625 -3.953125 C 3.222656 -4.066406 3 -4.125 2.71875 -4.125 C 2.46875 -4.125 2.226562 -4.066406 2 -3.953125 C 1.78125 -3.835938 1.597656 -3.679688 1.453125 -3.484375 C 1.316406 -3.285156 1.25 -3.0625 1.25 -2.8125 L 1.25 -0.265625 C 1.25 -0.191406 1.222656 -0.128906 1.171875 -0.078125 C 1.117188 -0.0234375 1.054688 0 0.984375 0 C 0.898438 0 0.832031 -0.0234375 0.78125 -0.078125 C 0.738281 -0.128906 0.71875 -0.191406 0.71875 -0.265625 L 0.71875 -6.390625 C 0.71875 -6.460938 0.738281 -6.523438 0.78125 -6.578125 C 0.832031 -6.628906 0.898438 -6.65625 0.984375 -6.65625 C 1.054688 -6.65625 1.117188 -6.628906 1.171875 -6.578125 C 1.222656 -6.523438 1.25 -6.460938 1.25 -6.390625 L 1.25 -3.46875 L 1.046875 -3.15625 C 1.054688 -3.34375 1.113281 -3.523438 1.21875 -3.703125 C 1.320312 -3.878906 1.457031 -4.035156 1.625 -4.171875 C 1.789062 -4.316406 1.976562 -4.429688 2.1875 -4.515625 C 2.394531 -4.597656 2.601562 -4.640625 2.8125 -4.640625 Z M 2.8125 -4.640625 "/></g></g></g><g fill="#000000" fill-opacity="1"><g transform="translate(170.199847, 89.115151)"><g/></g></g><g fill="#000000" fill-opacity="1"><g transform="translate(172.656859, 89.115151)"><g><path d="M 3.25 -6.296875 C 3.582031 -6.296875 3.878906 -6.21875 4.140625 -6.0625 C 4.398438 -5.914062 4.601562 -5.707031 4.75 -5.4375 C 4.90625 -5.164062 4.984375 -4.859375 4.984375 -4.515625 C 4.984375 -4.160156 4.90625 -3.84375 4.75 -3.5625 C 4.601562 -3.289062 4.398438 -3.070312 4.140625 -2.90625 C 3.878906 -2.738281 3.582031 -2.65625 3.25 -2.65625 L 1.34375 -2.65625 L 1.390625 -2.75 L 1.390625 -0.265625 C 1.390625 -0.191406 1.359375 -0.128906 1.296875 -0.078125 C 1.242188 -0.0234375 1.179688 0 1.109375 0 C 1.023438 0 0.957031 -0.0234375 0.90625 -0.078125 C 0.863281 -0.128906 0.84375 -0.191406 0.84375 -0.265625 L 0.84375 -6.03125 C 0.84375 -6.101562 0.867188 -6.164062 0.921875 -6.21875 C 0.984375 -6.269531 1.046875 -6.296875 1.109375 -6.296875 Z M 3.25 -3.1875 C 3.476562 -3.1875 3.679688 -3.242188 3.859375 -3.359375 C 4.035156 -3.472656 4.171875 -3.628906 4.265625 -3.828125 C 4.367188 -4.035156 4.421875 -4.265625 4.421875 -4.515625 C 4.421875 -4.753906 4.367188 -4.96875 4.265625 -5.15625 C 4.171875 -5.34375 4.035156 -5.488281 3.859375 -5.59375 C 3.679688 -5.707031 3.476562 -5.765625 3.25 -5.765625 L 1.34375 -5.765625 L 1.390625 -5.84375 L 1.390625 -3.125 L 1.328125 -3.1875 Z M 3.25 -3.1875 "/></g></g></g><g fill="#000000" fill-opacity="1"><g transform="translate(178.020899, 89.115151)"><g><path d="M 0.984375 0 C 0.898438 0 0.832031 -0.0234375 0.78125 -0.078125 C 0.738281 -0.128906 0.71875 -0.191406 0.71875 -0.265625 L 0.71875 -4.296875 C 0.71875 -4.367188 0.738281 -4.429688 0.78125 -4.484375 C 0.832031 -4.546875 0.898438 -4.578125 0.984375 -4.578125 C 1.054688 -4.578125 1.117188 -4.546875 1.171875 -4.484375 C 1.222656 -4.429688 1.25 -4.367188 1.25 -4.296875 L 1.25 -2.953125 L 1.109375 -2.921875 C 1.128906 -3.128906 1.179688 -3.335938 1.265625 -3.546875 C 1.359375 -3.753906 1.476562 -3.945312 1.625 -4.125 C 1.78125 -4.300781 1.957031 -4.441406 2.15625 -4.546875 C 2.363281 -4.648438 2.597656 -4.703125 2.859375 -4.703125 C 2.972656 -4.703125 3.078125 -4.679688 3.171875 -4.640625 C 3.273438 -4.597656 3.328125 -4.523438 3.328125 -4.421875 C 3.328125 -4.328125 3.300781 -4.253906 3.25 -4.203125 C 3.207031 -4.160156 3.15625 -4.140625 3.09375 -4.140625 C 3.03125 -4.140625 2.96875 -4.15625 2.90625 -4.1875 C 2.84375 -4.21875 2.757812 -4.234375 2.65625 -4.234375 C 2.488281 -4.234375 2.320312 -4.179688 2.15625 -4.078125 C 1.988281 -3.984375 1.835938 -3.847656 1.703125 -3.671875 C 1.566406 -3.503906 1.457031 -3.316406 1.375 -3.109375 C 1.289062 -2.910156 1.25 -2.707031 1.25 -2.5 L 1.25 -0.265625 C 1.25 -0.191406 1.222656 -0.128906 1.171875 -0.078125 C 1.117188 -0.0234375 1.054688 0 0.984375 0 Z M 0.984375 0 "/></g></g></g><g fill="#000000" fill-opacity="1"><g transform="translate(181.485918, 89.115151)"><g><path d="M 2.796875 0.09375 C 2.328125 0.09375 1.914062 -0.00390625 1.5625 -0.203125 C 1.207031 -0.398438 0.929688 -0.675781 0.734375 -1.03125 C 0.535156 -1.382812 0.4375 -1.800781 0.4375 -2.28125 C 0.4375 -2.789062 0.535156 -3.222656 0.734375 -3.578125 C 0.941406 -3.941406 1.203125 -4.21875 1.515625 -4.40625 C 1.835938 -4.601562 2.179688 -4.703125 2.546875 -4.703125 C 2.804688 -4.703125 3.0625 -4.65625 3.3125 -4.5625 C 3.5625 -4.46875 3.785156 -4.328125 3.984375 -4.140625 C 4.179688 -3.960938 4.335938 -3.742188 4.453125 -3.484375 C 4.566406 -3.222656 4.628906 -2.914062 4.640625 -2.5625 C 4.640625 -2.488281 4.609375 -2.425781 4.546875 -2.375 C 4.492188 -2.320312 4.429688 -2.296875 4.359375 -2.296875 L 0.75 -2.296875 L 0.640625 -2.796875 L 4.1875 -2.796875 L 4.078125 -2.6875 L 4.078125 -2.859375 C 4.054688 -3.140625 3.96875 -3.378906 3.8125 -3.578125 C 3.65625 -3.773438 3.460938 -3.925781 3.234375 -4.03125 C 3.015625 -4.132812 2.785156 -4.1875 2.546875 -4.1875 C 2.367188 -4.1875 2.179688 -4.148438 1.984375 -4.078125 C 1.796875 -4.003906 1.625 -3.890625 1.46875 -3.734375 C 1.320312 -3.585938 1.203125 -3.394531 1.109375 -3.15625 C 1.015625 -2.914062 0.96875 -2.632812 0.96875 -2.3125 C 0.96875 -1.957031 1.035156 -1.632812 1.171875 -1.34375 C 1.316406 -1.0625 1.523438 -0.832031 1.796875 -0.65625 C 2.078125 -0.488281 2.40625 -0.40625 2.78125 -0.40625 C 2.988281 -0.40625 3.175781 -0.4375 3.34375 -0.5 C 3.507812 -0.5625 3.65625 -0.640625 3.78125 -0.734375 C 3.914062 -0.835938 4.023438 -0.941406 4.109375 -1.046875 C 4.171875 -1.109375 4.234375 -1.140625 4.296875 -1.140625 C 4.359375 -1.140625 4.410156 -1.113281 4.453125 -1.0625 C 4.503906 -1.007812 4.53125 -0.957031 4.53125 -0.90625 C 4.53125 -0.832031 4.5 -0.769531 4.4375 -0.71875 C 4.257812 -0.5 4.023438 -0.304688 3.734375 -0.140625 C 3.441406 0.015625 3.128906 0.09375 2.796875 0.09375 Z M 2.796875 0.09375 "/></g></g></g><g fill="#000000" fill-opacity="1"><g transform="translate(186.570951, 89.115151)"><g><path d="M 0.609375 -4.703125 C 0.648438 -4.703125 0.691406 -4.6875 0.734375 -4.65625 C 0.785156 -4.625 0.828125 -4.578125 0.859375 -4.515625 L 2.4375 -0.78125 L 2.3125 -0.703125 L 3.921875 -4.515625 C 3.972656 -4.640625 4.0625 -4.695312 4.1875 -4.6875 C 4.25 -4.6875 4.304688 -4.664062 4.359375 -4.625 C 4.410156 -4.59375 4.4375 -4.539062 4.4375 -4.46875 C 4.4375 -4.425781 4.429688 -4.394531 4.421875 -4.375 C 4.410156 -4.351562 4.40625 -4.332031 4.40625 -4.3125 L 2.640625 -0.171875 C 2.585938 -0.0664062 2.503906 -0.0078125 2.390625 0 C 2.335938 0.0078125 2.285156 0 2.234375 -0.03125 C 2.179688 -0.0703125 2.144531 -0.117188 2.125 -0.171875 L 0.34375 -4.3125 C 0.34375 -4.320312 0.335938 -4.335938 0.328125 -4.359375 C 0.328125 -4.390625 0.328125 -4.414062 0.328125 -4.4375 C 0.328125 -4.5 0.347656 -4.554688 0.390625 -4.609375 C 0.441406 -4.671875 0.515625 -4.703125 0.609375 -4.703125 Z M 0.609375 -4.703125 "/></g></g></g><g fill="#000000" fill-opacity="1"><g transform="translate(191.331979, 89.115151)"><g><path d="M 2.796875 0.09375 C 2.328125 0.09375 1.914062 -0.00390625 1.5625 -0.203125 C 1.207031 -0.398438 0.929688 -0.675781 0.734375 -1.03125 C 0.535156 -1.382812 0.4375 -1.800781 0.4375 -2.28125 C 0.4375 -2.789062 0.535156 -3.222656 0.734375 -3.578125 C 0.941406 -3.941406 1.203125 -4.21875 1.515625 -4.40625 C 1.835938 -4.601562 2.179688 -4.703125 2.546875 -4.703125 C 2.804688 -4.703125 3.0625 -4.65625 3.3125 -4.5625 C 3.5625 -4.46875 3.785156 -4.328125 3.984375 -4.140625 C 4.179688 -3.960938 4.335938 -3.742188 4.453125 -3.484375 C 4.566406 -3.222656 4.628906 -2.914062 4.640625 -2.5625 C 4.640625 -2.488281 4.609375 -2.425781 4.546875 -2.375 C 4.492188 -2.320312 4.429688 -2.296875 4.359375 -2.296875 L 0.75 -2.296875 L 0.640625 -2.796875 L 4.1875 -2.796875 L 4.078125 -2.6875 L 4.078125 -2.859375 C 4.054688 -3.140625 3.96875 -3.378906 3.8125 -3.578125 C 3.65625 -3.773438 3.460938 -3.925781 3.234375 -4.03125 C 3.015625 -4.132812 2.785156 -4.1875 2.546875 -4.1875 C 2.367188 -4.1875 2.179688 -4.148438 1.984375 -4.078125 C 1.796875 -4.003906 1.625 -3.890625 1.46875 -3.734375 C 1.320312 -3.585938 1.203125 -3.394531 1.109375 -3.15625 C 1.015625 -2.914062 0.96875 -2.632812 0.96875 -2.3125 C 0.96875 -1.957031 1.035156 -1.632812 1.171875 -1.34375 C 1.316406 -1.0625 1.523438 -0.832031 1.796875 -0.65625 C 2.078125 -0.488281 2.40625 -0.40625 2.78125 -0.40625 C 2.988281 -0.40625 3.175781 -0.4375 3.34375 -0.5 C 3.507812 -0.5625 3.65625 -0.640625 3.78125 -0.734375 C 3.914062 -0.835938 4.023438 -0.941406 4.109375 -1.046875 C 4.171875 -1.109375 4.234375 -1.140625 4.296875 -1.140625 C 4.359375 -1.140625 4.410156 -1.113281 4.453125 -1.0625 C 4.503906 -1.007812 4.53125 -0.957031 4.53125 -0.90625 C 4.53125 -0.832031 4.5 -0.769531 4.4375 -0.71875 C 4.257812 -0.5 4.023438 -0.304688 3.734375 -0.140625 C 3.441406 0.015625 3.128906 0.09375 2.796875 0.09375 Z M 2.796875 0.09375 "/></g></g></g><g fill="#000000" fill-opacity="1"><g transform="translate(196.417012, 89.115151)"><g><path d="M 2.875 -4.703125 C 3.269531 -4.703125 3.585938 -4.625 3.828125 -4.46875 C 4.066406 -4.3125 4.238281 -4.09375 4.34375 -3.8125 C 4.445312 -3.539062 4.5 -3.242188 4.5 -2.921875 L 4.5 -0.265625 C 4.5 -0.191406 4.472656 -0.128906 4.421875 -0.078125 C 4.367188 -0.0234375 4.304688 0 4.234375 0 C 4.148438 0 4.082031 -0.0234375 4.03125 -0.078125 C 3.976562 -0.128906 3.953125 -0.191406 3.953125 -0.265625 L 3.953125 -2.890625 C 3.953125 -3.128906 3.910156 -3.347656 3.828125 -3.546875 C 3.753906 -3.742188 3.628906 -3.898438 3.453125 -4.015625 C 3.273438 -4.140625 3.046875 -4.203125 2.765625 -4.203125 C 2.503906 -4.203125 2.257812 -4.140625 2.03125 -4.015625 C 1.800781 -3.898438 1.613281 -3.742188 1.46875 -3.546875 C 1.320312 -3.347656 1.25 -3.128906 1.25 -2.890625 L 1.25 -0.265625 C 1.25 -0.191406 1.222656 -0.128906 1.171875 -0.078125 C 1.117188 -0.0234375 1.054688 0 0.984375 0 C 0.898438 0 0.832031 -0.0234375 0.78125 -0.078125 C 0.738281 -0.128906 0.71875 -0.191406 0.71875 -0.265625 L 0.71875 -4.296875 C 0.71875 -4.367188 0.738281 -4.429688 0.78125 -4.484375 C 0.832031 -4.546875 0.898438 -4.578125 0.984375 -4.578125 C 1.054688 -4.578125 1.117188 -4.546875 1.171875 -4.484375 C 1.222656 -4.429688 1.25 -4.367188 1.25 -4.296875 L 1.25 -3.546875 L 1.046875 -3.21875 C 1.054688 -3.414062 1.113281 -3.601562 1.21875 -3.78125 C 1.332031 -3.957031 1.476562 -4.113281 1.65625 -4.25 C 1.832031 -4.394531 2.023438 -4.503906 2.234375 -4.578125 C 2.453125 -4.660156 2.664062 -4.703125 2.875 -4.703125 Z M 2.875 -4.703125 "/></g></g></g><g fill="#000000" fill-opacity="1"><g transform="translate(201.61905, 89.115151)"><g><path d="M 0.40625 -4.578125 L 2.515625 -4.578125 C 2.585938 -4.578125 2.644531 -4.550781 2.6875 -4.5 C 2.738281 -4.445312 2.765625 -4.382812 2.765625 -4.3125 C 2.765625 -4.25 2.738281 -4.191406 2.6875 -4.140625 C 2.644531 -4.097656 2.585938 -4.078125 2.515625 -4.078125 L 0.40625 -4.078125 C 0.34375 -4.078125 0.285156 -4.101562 0.234375 -4.15625 C 0.179688 -4.207031 0.15625 -4.265625 0.15625 -4.328125 C 0.15625 -4.398438 0.179688 -4.457031 0.234375 -4.5 C 0.285156 -4.550781 0.34375 -4.578125 0.40625 -4.578125 Z M 1.34375 -5.84375 C 1.414062 -5.84375 1.476562 -5.816406 1.53125 -5.765625 C 1.582031 -5.710938 1.609375 -5.648438 1.609375 -5.578125 L 1.609375 -1.0625 C 1.609375 -0.894531 1.628906 -0.769531 1.671875 -0.6875 C 1.722656 -0.601562 1.785156 -0.546875 1.859375 -0.515625 C 1.929688 -0.492188 2 -0.484375 2.0625 -0.484375 C 2.113281 -0.484375 2.160156 -0.488281 2.203125 -0.5 C 2.242188 -0.507812 2.285156 -0.515625 2.328125 -0.515625 C 2.378906 -0.515625 2.425781 -0.492188 2.46875 -0.453125 C 2.507812 -0.410156 2.53125 -0.359375 2.53125 -0.296875 C 2.53125 -0.210938 2.476562 -0.140625 2.375 -0.078125 C 2.28125 -0.0234375 2.171875 0 2.046875 0 C 1.992188 0 1.910156 -0.00390625 1.796875 -0.015625 C 1.691406 -0.0234375 1.582031 -0.0546875 1.46875 -0.109375 C 1.351562 -0.171875 1.257812 -0.269531 1.1875 -0.40625 C 1.113281 -0.550781 1.078125 -0.757812 1.078125 -1.03125 L 1.078125 -5.578125 C 1.078125 -5.648438 1.097656 -5.710938 1.140625 -5.765625 C 1.191406 -5.816406 1.257812 -5.84375 1.34375 -5.84375 Z M 1.34375 -5.84375 "/></g></g></g><g fill="#000000" fill-opacity="1"><g transform="translate(204.670067, 89.115151)"><g><path d="M 1.234375 -0.265625 C 1.234375 -0.191406 1.207031 -0.128906 1.15625 -0.078125 C 1.101562 -0.0234375 1.039062 0 0.96875 0 C 0.882812 0 0.816406 -0.0234375 0.765625 -0.078125 C 0.710938 -0.128906 0.6875 -0.191406 0.6875 -0.265625 L 0.6875 -4.40625 C 0.6875 -4.476562 0.710938 -4.539062 0.765625 -4.59375 C 0.816406 -4.65625 0.882812 -4.6875 0.96875 -4.6875 C 1.039062 -4.6875 1.101562 -4.65625 1.15625 -4.59375 C 1.207031 -4.539062 1.234375 -4.476562 1.234375 -4.40625 Z M 0.96875 -5.28125 C 0.84375 -5.28125 0.75 -5.304688 0.6875 -5.359375 C 0.625 -5.421875 0.59375 -5.503906 0.59375 -5.609375 L 0.59375 -5.703125 C 0.59375 -5.804688 0.625 -5.882812 0.6875 -5.9375 C 0.757812 -6 0.859375 -6.03125 0.984375 -6.03125 C 1.097656 -6.03125 1.1875 -6 1.25 -5.9375 C 1.3125 -5.882812 1.34375 -5.804688 1.34375 -5.703125 L 1.34375 -5.609375 C 1.34375 -5.503906 1.3125 -5.421875 1.25 -5.359375 C 1.1875 -5.304688 1.09375 -5.28125 0.96875 -5.28125 Z M 0.96875 -5.28125 "/></g></g></g><g fill="#000000" fill-opacity="1"><g transform="translate(206.596085, 89.115151)"><g><path d="M 5 -2.296875 C 5 -1.847656 4.898438 -1.441406 4.703125 -1.078125 C 4.503906 -0.710938 4.234375 -0.425781 3.890625 -0.21875 C 3.546875 -0.0078125 3.15625 0.09375 2.71875 0.09375 C 2.289062 0.09375 1.90625 -0.0078125 1.5625 -0.21875 C 1.21875 -0.425781 0.941406 -0.710938 0.734375 -1.078125 C 0.535156 -1.441406 0.4375 -1.847656 0.4375 -2.296875 C 0.4375 -2.765625 0.535156 -3.175781 0.734375 -3.53125 C 0.941406 -3.894531 1.21875 -4.179688 1.5625 -4.390625 C 1.90625 -4.597656 2.289062 -4.703125 2.71875 -4.703125 C 3.15625 -4.703125 3.546875 -4.597656 3.890625 -4.390625 C 4.234375 -4.179688 4.503906 -3.894531 4.703125 -3.53125 C 4.898438 -3.175781 5 -2.765625 5 -2.296875 Z M 4.453125 -2.296875 C 4.453125 -2.671875 4.375 -3 4.21875 -3.28125 C 4.070312 -3.5625 3.867188 -3.785156 3.609375 -3.953125 C 3.347656 -4.117188 3.050781 -4.203125 2.71875 -4.203125 C 2.394531 -4.203125 2.097656 -4.117188 1.828125 -3.953125 C 1.566406 -3.785156 1.359375 -3.5625 1.203125 -3.28125 C 1.054688 -3 0.984375 -2.671875 0.984375 -2.296875 C 0.984375 -1.929688 1.054688 -1.609375 1.203125 -1.328125 C 1.359375 -1.046875 1.566406 -0.820312 1.828125 -0.65625 C 2.097656 -0.488281 2.394531 -0.40625 2.71875 -0.40625 C 3.050781 -0.40625 3.347656 -0.488281 3.609375 -0.65625 C 3.867188 -0.820312 4.070312 -1.046875 4.21875 -1.328125 C 4.375 -1.609375 4.453125 -1.929688 4.453125 -2.296875 Z M 4.453125 -2.296875 "/></g></g></g><g fill="#000000" fill-opacity="1"><g transform="translate(212.03212, 89.115151)"><g><path d="M 2.875 -4.703125 C 3.269531 -4.703125 3.585938 -4.625 3.828125 -4.46875 C 4.066406 -4.3125 4.238281 -4.09375 4.34375 -3.8125 C 4.445312 -3.539062 4.5 -3.242188 4.5 -2.921875 L 4.5 -0.265625 C 4.5 -0.191406 4.472656 -0.128906 4.421875 -0.078125 C 4.367188 -0.0234375 4.304688 0 4.234375 0 C 4.148438 0 4.082031 -0.0234375 4.03125 -0.078125 C 3.976562 -0.128906 3.953125 -0.191406 3.953125 -0.265625 L 3.953125 -2.890625 C 3.953125 -3.128906 3.910156 -3.347656 3.828125 -3.546875 C 3.753906 -3.742188 3.628906 -3.898438 3.453125 -4.015625 C 3.273438 -4.140625 3.046875 -4.203125 2.765625 -4.203125 C 2.503906 -4.203125 2.257812 -4.140625 2.03125 -4.015625 C 1.800781 -3.898438 1.613281 -3.742188 1.46875 -3.546875 C 1.320312 -3.347656 1.25 -3.128906 1.25 -2.890625 L 1.25 -0.265625 C 1.25 -0.191406 1.222656 -0.128906 1.171875 -0.078125 C 1.117188 -0.0234375 1.054688 0 0.984375 0 C 0.898438 0 0.832031 -0.0234375 0.78125 -0.078125 C 0.738281 -0.128906 0.71875 -0.191406 0.71875 -0.265625 L 0.71875 -4.296875 C 0.71875 -4.367188 0.738281 -4.429688 0.78125 -4.484375 C 0.832031 -4.546875 0.898438 -4.578125 0.984375 -4.578125 C 1.054688 -4.578125 1.117188 -4.546875 1.171875 -4.484375 C 1.222656 -4.429688 1.25 -4.367188 1.25 -4.296875 L 1.25 -3.546875 L 1.046875 -3.21875 C 1.054688 -3.414062 1.113281 -3.601562 1.21875 -3.78125 C 1.332031 -3.957031 1.476562 -4.113281 1.65625 -4.25 C 1.832031 -4.394531 2.023438 -4.503906 2.234375 -4.578125 C 2.453125 -4.660156 2.664062 -4.703125 2.875 -4.703125 Z M 2.875 -4.703125 "/></g></g></g><g fill="#000000" fill-opacity="1"><g transform="translate(217.234157, 89.115151)"><g/></g></g><g fill="#000000" fill-opacity="1"><g transform="translate(219.691169, 89.115151)"><g><path d="M 2.71875 0 C 2.632812 0 2.566406 -0.0234375 2.515625 -0.078125 C 2.460938 -0.128906 2.4375 -0.191406 2.4375 -0.265625 L 2.4375 -6 L 3 -6 L 3 -0.265625 C 3 -0.191406 2.96875 -0.128906 2.90625 -0.078125 C 2.851562 -0.0234375 2.789062 0 2.71875 0 Z M 0.578125 -5.78125 C 0.503906 -5.78125 0.441406 -5.804688 0.390625 -5.859375 C 0.335938 -5.910156 0.3125 -5.972656 0.3125 -6.046875 C 0.3125 -6.117188 0.335938 -6.175781 0.390625 -6.21875 C 0.441406 -6.269531 0.503906 -6.296875 0.578125 -6.296875 L 4.859375 -6.296875 C 4.929688 -6.296875 4.992188 -6.269531 5.046875 -6.21875 C 5.097656 -6.175781 5.125 -6.113281 5.125 -6.03125 C 5.125 -5.957031 5.097656 -5.894531 5.046875 -5.84375 C 4.992188 -5.800781 4.929688 -5.78125 4.859375 -5.78125 Z M 0.578125 -5.78125 "/></g></g></g><g fill="#000000" fill-opacity="1"><g transform="translate(225.127204, 89.115151)"><g><path d="M 2.8125 -4.640625 C 3.1875 -4.640625 3.488281 -4.554688 3.71875 -4.390625 C 3.957031 -4.234375 4.128906 -4.015625 4.234375 -3.734375 C 4.347656 -3.460938 4.40625 -3.15625 4.40625 -2.8125 L 4.40625 -0.265625 C 4.40625 -0.191406 4.378906 -0.128906 4.328125 -0.078125 C 4.273438 -0.0234375 4.210938 0 4.140625 0 C 4.054688 0 3.988281 -0.0234375 3.9375 -0.078125 C 3.894531 -0.128906 3.875 -0.191406 3.875 -0.265625 L 3.875 -2.8125 C 3.875 -3.0625 3.832031 -3.285156 3.75 -3.484375 C 3.675781 -3.679688 3.554688 -3.835938 3.390625 -3.953125 C 3.222656 -4.066406 3 -4.125 2.71875 -4.125 C 2.46875 -4.125 2.226562 -4.066406 2 -3.953125 C 1.78125 -3.835938 1.597656 -3.679688 1.453125 -3.484375 C 1.316406 -3.285156 1.25 -3.0625 1.25 -2.8125 L 1.25 -0.265625 C 1.25 -0.191406 1.222656 -0.128906 1.171875 -0.078125 C 1.117188 -0.0234375 1.054688 0 0.984375 0 C 0.898438 0 0.832031 -0.0234375 0.78125 -0.078125 C 0.738281 -0.128906 0.71875 -0.191406 0.71875 -0.265625 L 0.71875 -6.390625 C 0.71875 -6.460938 0.738281 -6.523438 0.78125 -6.578125 C 0.832031 -6.628906 0.898438 -6.65625 0.984375 -6.65625 C 1.054688 -6.65625 1.117188 -6.628906 1.171875 -6.578125 C 1.222656 -6.523438 1.25 -6.460938 1.25 -6.390625 L 1.25 -3.46875 L 1.046875 -3.15625 C 1.054688 -3.34375 1.113281 -3.523438 1.21875 -3.703125 C 1.320312 -3.878906 1.457031 -4.035156 1.625 -4.171875 C 1.789062 -4.316406 1.976562 -4.429688 2.1875 -4.515625 C 2.394531 -4.597656 2.601562 -4.640625 2.8125 -4.640625 Z M 2.8125 -4.640625 "/></g></g></g><g fill="#000000" fill-opacity="1"><g transform="translate(230.239245, 89.115151)"><g><path d="M 0.984375 0 C 0.898438 0 0.832031 -0.0234375 0.78125 -0.078125 C 0.738281 -0.128906 0.71875 -0.191406 0.71875 -0.265625 L 0.71875 -4.296875 C 0.71875 -4.367188 0.738281 -4.429688 0.78125 -4.484375 C 0.832031 -4.546875 0.898438 -4.578125 0.984375 -4.578125 C 1.054688 -4.578125 1.117188 -4.546875 1.171875 -4.484375 C 1.222656 -4.429688 1.25 -4.367188 1.25 -4.296875 L 1.25 -2.953125 L 1.109375 -2.921875 C 1.128906 -3.128906 1.179688 -3.335938 1.265625 -3.546875 C 1.359375 -3.753906 1.476562 -3.945312 1.625 -4.125 C 1.78125 -4.300781 1.957031 -4.441406 2.15625 -4.546875 C 2.363281 -4.648438 2.597656 -4.703125 2.859375 -4.703125 C 2.972656 -4.703125 3.078125 -4.679688 3.171875 -4.640625 C 3.273438 -4.597656 3.328125 -4.523438 3.328125 -4.421875 C 3.328125 -4.328125 3.300781 -4.253906 3.25 -4.203125 C 3.207031 -4.160156 3.15625 -4.140625 3.09375 -4.140625 C 3.03125 -4.140625 2.96875 -4.15625 2.90625 -4.1875 C 2.84375 -4.21875 2.757812 -4.234375 2.65625 -4.234375 C 2.488281 -4.234375 2.320312 -4.179688 2.15625 -4.078125 C 1.988281 -3.984375 1.835938 -3.847656 1.703125 -3.671875 C 1.566406 -3.503906 1.457031 -3.316406 1.375 -3.109375 C 1.289062 -2.910156 1.25 -2.707031 1.25 -2.5 L 1.25 -0.265625 C 1.25 -0.191406 1.222656 -0.128906 1.171875 -0.078125 C 1.117188 -0.0234375 1.054688 0 0.984375 0 Z M 0.984375 0 "/></g></g></g><g fill="#000000" fill-opacity="1"><g transform="translate(233.704265, 89.115151)"><g><path d="M 5 -2.296875 C 5 -1.847656 4.898438 -1.441406 4.703125 -1.078125 C 4.503906 -0.710938 4.234375 -0.425781 3.890625 -0.21875 C 3.546875 -0.0078125 3.15625 0.09375 2.71875 0.09375 C 2.289062 0.09375 1.90625 -0.0078125 1.5625 -0.21875 C 1.21875 -0.425781 0.941406 -0.710938 0.734375 -1.078125 C 0.535156 -1.441406 0.4375 -1.847656 0.4375 -2.296875 C 0.4375 -2.765625 0.535156 -3.175781 0.734375 -3.53125 C 0.941406 -3.894531 1.21875 -4.179688 1.5625 -4.390625 C 1.90625 -4.597656 2.289062 -4.703125 2.71875 -4.703125 C 3.15625 -4.703125 3.546875 -4.597656 3.890625 -4.390625 C 4.234375 -4.179688 4.503906 -3.894531 4.703125 -3.53125 C 4.898438 -3.175781 5 -2.765625 5 -2.296875 Z M 4.453125 -2.296875 C 4.453125 -2.671875 4.375 -3 4.21875 -3.28125 C 4.070312 -3.5625 3.867188 -3.785156 3.609375 -3.953125 C 3.347656 -4.117188 3.050781 -4.203125 2.71875 -4.203125 C 2.394531 -4.203125 2.097656 -4.117188 1.828125 -3.953125 C 1.566406 -3.785156 1.359375 -3.5625 1.203125 -3.28125 C 1.054688 -3 0.984375 -2.671875 0.984375 -2.296875 C 0.984375 -1.929688 1.054688 -1.609375 1.203125 -1.328125 C 1.359375 -1.046875 1.566406 -0.820312 1.828125 -0.65625 C 2.097656 -0.488281 2.394531 -0.40625 2.71875 -0.40625 C 3.050781 -0.40625 3.347656 -0.488281 3.609375 -0.65625 C 3.867188 -0.820312 4.070312 -1.046875 4.21875 -1.328125 C 4.375 -1.609375 4.453125 -1.929688 4.453125 -2.296875 Z M 4.453125 -2.296875 "/></g></g></g><g fill="#000000" fill-opacity="1"><g transform="translate(239.140299, 89.115151)"><g><path d="M 4.15625 -4.578125 C 4.226562 -4.578125 4.289062 -4.546875 4.34375 -4.484375 C 4.394531 -4.429688 4.421875 -4.367188 4.421875 -4.296875 L 4.421875 -1.765625 C 4.421875 -1.171875 4.25 -0.71875 3.90625 -0.40625 C 3.570312 -0.09375 3.125 0.0625 2.5625 0.0625 C 1.988281 0.0625 1.535156 -0.09375 1.203125 -0.40625 C 0.878906 -0.71875 0.71875 -1.171875 0.71875 -1.765625 L 0.71875 -4.296875 C 0.71875 -4.367188 0.738281 -4.429688 0.78125 -4.484375 C 0.832031 -4.546875 0.898438 -4.578125 0.984375 -4.578125 C 1.054688 -4.578125 1.117188 -4.546875 1.171875 -4.484375 C 1.222656 -4.429688 1.25 -4.367188 1.25 -4.296875 L 1.25 -1.765625 C 1.25 -1.328125 1.363281 -0.992188 1.59375 -0.765625 C 1.820312 -0.546875 2.144531 -0.4375 2.5625 -0.4375 C 2.96875 -0.4375 3.285156 -0.546875 3.515625 -0.765625 C 3.753906 -0.992188 3.875 -1.328125 3.875 -1.765625 L 3.875 -4.296875 C 3.875 -4.367188 3.894531 -4.429688 3.9375 -4.484375 C 3.988281 -4.546875 4.0625 -4.578125 4.15625 -4.578125 Z M 4.15625 -4.578125 "/></g></g></g><g fill="#000000" fill-opacity="1"><g transform="translate(244.261336, 89.115151)"><g><path d="M 2.625 -4.703125 C 2.894531 -4.703125 3.144531 -4.65625 3.375 -4.5625 C 3.601562 -4.46875 3.800781 -4.347656 3.96875 -4.203125 C 4.144531 -4.054688 4.28125 -3.898438 4.375 -3.734375 C 4.46875 -3.566406 4.515625 -3.410156 4.515625 -3.265625 L 4.359375 -3.484375 L 4.359375 -4.3125 C 4.359375 -4.394531 4.382812 -4.460938 4.4375 -4.515625 C 4.488281 -4.566406 4.554688 -4.59375 4.640625 -4.59375 C 4.722656 -4.59375 4.785156 -4.566406 4.828125 -4.515625 C 4.878906 -4.460938 4.90625 -4.394531 4.90625 -4.3125 L 4.90625 -0.421875 C 4.90625 0.0546875 4.804688 0.457031 4.609375 0.78125 C 4.410156 1.113281 4.140625 1.363281 3.796875 1.53125 C 3.460938 1.707031 3.078125 1.796875 2.640625 1.796875 C 2.429688 1.796875 2.210938 1.769531 1.984375 1.71875 C 1.753906 1.664062 1.554688 1.597656 1.390625 1.515625 C 1.222656 1.429688 1.128906 1.34375 1.109375 1.25 C 1.066406 1.195312 1.046875 1.144531 1.046875 1.09375 C 1.046875 1.039062 1.070312 1 1.125 0.96875 C 1.1875 0.925781 1.25 0.921875 1.3125 0.953125 C 1.375 0.984375 1.472656 1.023438 1.609375 1.078125 C 1.671875 1.097656 1.75 1.125 1.84375 1.15625 C 1.945312 1.195312 2.070312 1.226562 2.21875 1.25 C 2.363281 1.28125 2.507812 1.296875 2.65625 1.296875 C 3.195312 1.296875 3.613281 1.140625 3.90625 0.828125 C 4.207031 0.523438 4.359375 0.117188 4.359375 -0.390625 L 4.359375 -1.25 L 4.46875 -1.21875 C 4.414062 -1.007812 4.328125 -0.820312 4.203125 -0.65625 C 4.078125 -0.488281 3.929688 -0.347656 3.765625 -0.234375 C 3.597656 -0.128906 3.414062 -0.0507812 3.21875 0 C 3.019531 0.0625 2.828125 0.09375 2.640625 0.09375 C 2.222656 0.09375 1.847656 -0.0078125 1.515625 -0.21875 C 1.191406 -0.4375 0.929688 -0.722656 0.734375 -1.078125 C 0.535156 -1.441406 0.4375 -1.851562 0.4375 -2.3125 C 0.4375 -2.769531 0.535156 -3.179688 0.734375 -3.546875 C 0.929688 -3.910156 1.191406 -4.191406 1.515625 -4.390625 C 1.835938 -4.597656 2.207031 -4.703125 2.625 -4.703125 Z M 2.6875 -4.203125 C 2.363281 -4.203125 2.066406 -4.117188 1.796875 -3.953125 C 1.535156 -3.785156 1.332031 -3.5625 1.1875 -3.28125 C 1.039062 -3 0.96875 -2.675781 0.96875 -2.3125 C 0.96875 -1.945312 1.039062 -1.617188 1.1875 -1.328125 C 1.332031 -1.046875 1.535156 -0.820312 1.796875 -0.65625 C 2.066406 -0.488281 2.363281 -0.40625 2.6875 -0.40625 C 3.019531 -0.40625 3.3125 -0.488281 3.5625 -0.65625 C 3.820312 -0.820312 4.023438 -1.046875 4.171875 -1.328125 C 4.328125 -1.609375 4.40625 -1.9375 4.40625 -2.3125 C 4.40625 -2.6875 4.328125 -3.015625 4.171875 -3.296875 C 4.023438 -3.578125 3.820312 -3.796875 3.5625 -3.953125 C 3.3125 -4.117188 3.019531 -4.203125 2.6875 -4.203125 Z M 2.6875 -4.203125 "/></g></g></g><g fill="#000000" fill-opacity="1"><g transform="translate(249.877375, 89.115151)"><g><path d="M 2.8125 -4.640625 C 3.1875 -4.640625 3.488281 -4.554688 3.71875 -4.390625 C 3.957031 -4.234375 4.128906 -4.015625 4.234375 -3.734375 C 4.347656 -3.460938 4.40625 -3.15625 4.40625 -2.8125 L 4.40625 -0.265625 C 4.40625 -0.191406 4.378906 -0.128906 4.328125 -0.078125 C 4.273438 -0.0234375 4.210938 0 4.140625 0 C 4.054688 0 3.988281 -0.0234375 3.9375 -0.078125 C 3.894531 -0.128906 3.875 -0.191406 3.875 -0.265625 L 3.875 -2.8125 C 3.875 -3.0625 3.832031 -3.285156 3.75 -3.484375 C 3.675781 -3.679688 3.554688 -3.835938 3.390625 -3.953125 C 3.222656 -4.066406 3 -4.125 2.71875 -4.125 C 2.46875 -4.125 2.226562 -4.066406 2 -3.953125 C 1.78125 -3.835938 1.597656 -3.679688 1.453125 -3.484375 C 1.316406 -3.285156 1.25 -3.0625 1.25 -2.8125 L 1.25 -0.265625 C 1.25 -0.191406 1.222656 -0.128906 1.171875 -0.078125 C 1.117188 -0.0234375 1.054688 0 0.984375 0 C 0.898438 0 0.832031 -0.0234375 0.78125 -0.078125 C 0.738281 -0.128906 0.71875 -0.191406 0.71875 -0.265625 L 0.71875 -6.390625 C 0.71875 -6.460938 0.738281 -6.523438 0.78125 -6.578125 C 0.832031 -6.628906 0.898438 -6.65625 0.984375 -6.65625 C 1.054688 -6.65625 1.117188 -6.628906 1.171875 -6.578125 C 1.222656 -6.523438 1.25 -6.460938 1.25 -6.390625 L 1.25 -3.46875 L 1.046875 -3.15625 C 1.054688 -3.34375 1.113281 -3.523438 1.21875 -3.703125 C 1.320312 -3.878906 1.457031 -4.035156 1.625 -4.171875 C 1.789062 -4.316406 1.976562 -4.429688 2.1875 -4.515625 C 2.394531 -4.597656 2.601562 -4.640625 2.8125 -4.640625 Z M 2.8125 -4.640625 "/></g></g></g><g fill="#000000" fill-opacity="1"><g transform="translate(254.989416, 89.115151)"><g/></g></g><g fill="#000000" fill-opacity="1"><g transform="translate(257.446428, 89.115151)"><g><path d="M 1.40625 -0.28125 C 1.40625 -0.195312 1.375 -0.128906 1.3125 -0.078125 C 1.257812 -0.0234375 1.195312 0 1.125 0 C 1.039062 0 0.972656 -0.0234375 0.921875 -0.078125 C 0.867188 -0.128906 0.84375 -0.195312 0.84375 -0.28125 L 0.84375 -6.015625 C 0.84375 -6.097656 0.867188 -6.164062 0.921875 -6.21875 C 0.984375 -6.269531 1.054688 -6.296875 1.140625 -6.296875 C 1.203125 -6.296875 1.257812 -6.269531 1.3125 -6.21875 C 1.375 -6.164062 1.40625 -6.097656 1.40625 -6.015625 Z M 1.40625 -0.28125 "/></g></g></g><g fill="#000000" fill-opacity="1"><g transform="translate(259.696439, 89.115151)"><g><path d="M 2.78125 -4.640625 C 3.15625 -4.640625 3.472656 -4.539062 3.734375 -4.34375 C 3.992188 -4.144531 4.175781 -3.851562 4.28125 -3.46875 L 4.15625 -3.4375 L 4.203125 -3.59375 C 4.273438 -3.78125 4.40625 -3.953125 4.59375 -4.109375 C 4.78125 -4.265625 4.988281 -4.390625 5.21875 -4.484375 C 5.457031 -4.585938 5.695312 -4.640625 5.9375 -4.640625 C 6.3125 -4.640625 6.613281 -4.554688 6.84375 -4.390625 C 7.070312 -4.234375 7.238281 -4.015625 7.34375 -3.734375 C 7.445312 -3.460938 7.5 -3.15625 7.5 -2.8125 L 7.5 -0.265625 C 7.5 -0.191406 7.472656 -0.128906 7.421875 -0.078125 C 7.378906 -0.0234375 7.316406 0 7.234375 0 C 7.160156 0 7.097656 -0.0234375 7.046875 -0.078125 C 6.992188 -0.128906 6.96875 -0.191406 6.96875 -0.265625 L 6.96875 -2.796875 C 6.96875 -3.035156 6.925781 -3.253906 6.84375 -3.453125 C 6.769531 -3.660156 6.648438 -3.820312 6.484375 -3.9375 C 6.316406 -4.0625 6.09375 -4.125 5.8125 -4.125 C 5.5625 -4.125 5.320312 -4.0625 5.09375 -3.9375 C 4.875 -3.820312 4.691406 -3.660156 4.546875 -3.453125 C 4.410156 -3.253906 4.34375 -3.035156 4.34375 -2.796875 L 4.34375 -0.265625 C 4.34375 -0.191406 4.316406 -0.128906 4.265625 -0.078125 C 4.210938 -0.0234375 4.144531 0 4.0625 0 C 3.988281 0 3.925781 -0.0234375 3.875 -0.078125 C 3.820312 -0.128906 3.796875 -0.191406 3.796875 -0.265625 L 3.796875 -2.8125 C 3.796875 -3.0625 3.757812 -3.285156 3.6875 -3.484375 C 3.613281 -3.679688 3.492188 -3.835938 3.328125 -3.953125 C 3.171875 -4.066406 2.957031 -4.125 2.6875 -4.125 C 2.4375 -4.125 2.203125 -4.066406 1.984375 -3.953125 C 1.765625 -3.835938 1.585938 -3.679688 1.453125 -3.484375 C 1.316406 -3.285156 1.25 -3.0625 1.25 -2.8125 L 1.25 -0.265625 C 1.25 -0.191406 1.222656 -0.128906 1.171875 -0.078125 C 1.117188 -0.0234375 1.054688 0 0.984375 0 C 0.898438 0 0.832031 -0.0234375 0.78125 -0.078125 C 0.738281 -0.128906 0.71875 -0.191406 0.71875 -0.265625 L 0.71875 -4.296875 C 0.71875 -4.367188 0.738281 -4.429688 0.78125 -4.484375 C 0.832031 -4.546875 0.898438 -4.578125 0.984375 -4.578125 C 1.054688 -4.578125 1.117188 -4.546875 1.171875 -4.484375 C 1.222656 -4.429688 1.25 -4.367188 1.25 -4.296875 L 1.25 -3.46875 L 1.015625 -3.125 C 1.023438 -3.3125 1.078125 -3.492188 1.171875 -3.671875 C 1.273438 -3.847656 1.40625 -4.007812 1.5625 -4.15625 C 1.726562 -4.300781 1.914062 -4.414062 2.125 -4.5 C 2.332031 -4.59375 2.550781 -4.640625 2.78125 -4.640625 Z M 2.78125 -4.640625 "/></g></g></g><g fill="#000000" fill-opacity="1"><g transform="translate(267.904496, 89.115151)"><g><path d="M 1.234375 -0.265625 C 1.234375 -0.191406 1.207031 -0.128906 1.15625 -0.078125 C 1.101562 -0.0234375 1.039062 0 0.96875 0 C 0.882812 0 0.816406 -0.0234375 0.765625 -0.078125 C 0.710938 -0.128906 0.6875 -0.191406 0.6875 -0.265625 L 0.6875 -4.40625 C 0.6875 -4.476562 0.710938 -4.539062 0.765625 -4.59375 C 0.816406 -4.65625 0.882812 -4.6875 0.96875 -4.6875 C 1.039062 -4.6875 1.101562 -4.65625 1.15625 -4.59375 C 1.207031 -4.539062 1.234375 -4.476562 1.234375 -4.40625 Z M 0.96875 -5.28125 C 0.84375 -5.28125 0.75 -5.304688 0.6875 -5.359375 C 0.625 -5.421875 0.59375 -5.503906 0.59375 -5.609375 L 0.59375 -5.703125 C 0.59375 -5.804688 0.625 -5.882812 0.6875 -5.9375 C 0.757812 -6 0.859375 -6.03125 0.984375 -6.03125 C 1.097656 -6.03125 1.1875 -6 1.25 -5.9375 C 1.3125 -5.882812 1.34375 -5.804688 1.34375 -5.703125 L 1.34375 -5.609375 C 1.34375 -5.503906 1.3125 -5.421875 1.25 -5.359375 C 1.1875 -5.304688 1.09375 -5.28125 0.96875 -5.28125 Z M 0.96875 -5.28125 "/></g></g></g><g fill="#000000" fill-opacity="1"><g transform="translate(269.830514, 89.115151)"><g><path d="M 0.40625 -4.578125 L 2.515625 -4.578125 C 2.585938 -4.578125 2.644531 -4.550781 2.6875 -4.5 C 2.738281 -4.445312 2.765625 -4.382812 2.765625 -4.3125 C 2.765625 -4.25 2.738281 -4.191406 2.6875 -4.140625 C 2.644531 -4.097656 2.585938 -4.078125 2.515625 -4.078125 L 0.40625 -4.078125 C 0.34375 -4.078125 0.285156 -4.101562 0.234375 -4.15625 C 0.179688 -4.207031 0.15625 -4.265625 0.15625 -4.328125 C 0.15625 -4.398438 0.179688 -4.457031 0.234375 -4.5 C 0.285156 -4.550781 0.34375 -4.578125 0.40625 -4.578125 Z M 1.34375 -5.84375 C 1.414062 -5.84375 1.476562 -5.816406 1.53125 -5.765625 C 1.582031 -5.710938 1.609375 -5.648438 1.609375 -5.578125 L 1.609375 -1.0625 C 1.609375 -0.894531 1.628906 -0.769531 1.671875 -0.6875 C 1.722656 -0.601562 1.785156 -0.546875 1.859375 -0.515625 C 1.929688 -0.492188 2 -0.484375 2.0625 -0.484375 C 2.113281 -0.484375 2.160156 -0.488281 2.203125 -0.5 C 2.242188 -0.507812 2.285156 -0.515625 2.328125 -0.515625 C 2.378906 -0.515625 2.425781 -0.492188 2.46875 -0.453125 C 2.507812 -0.410156 2.53125 -0.359375 2.53125 -0.296875 C 2.53125 -0.210938 2.476562 -0.140625 2.375 -0.078125 C 2.28125 -0.0234375 2.171875 0 2.046875 0 C 1.992188 0 1.910156 -0.00390625 1.796875 -0.015625 C 1.691406 -0.0234375 1.582031 -0.0546875 1.46875 -0.109375 C 1.351562 -0.171875 1.257812 -0.269531 1.1875 -0.40625 C 1.113281 -0.550781 1.078125 -0.757812 1.078125 -1.03125 L 1.078125 -5.578125 C 1.078125 -5.648438 1.097656 -5.710938 1.140625 -5.765625 C 1.191406 -5.816406 1.257812 -5.84375 1.34375 -5.84375 Z M 1.34375 -5.84375 "/></g></g></g><g fill="#000000" fill-opacity="1"><g transform="translate(272.881532, 89.115151)"><g><path d="M 4.484375 -4.59375 C 4.554688 -4.59375 4.617188 -4.566406 4.671875 -4.515625 C 4.722656 -4.460938 4.75 -4.394531 4.75 -4.3125 L 4.75 -0.265625 C 4.75 -0.191406 4.722656 -0.128906 4.671875 -0.078125 C 4.617188 -0.0234375 4.554688 0 4.484375 0 C 4.398438 0 4.332031 -0.0234375 4.28125 -0.078125 C 4.238281 -0.128906 4.21875 -0.191406 4.21875 -0.265625 L 4.21875 -1.34375 L 4.359375 -1.40625 C 4.359375 -1.238281 4.3125 -1.066406 4.21875 -0.890625 C 4.132812 -0.722656 4.007812 -0.5625 3.84375 -0.40625 C 3.675781 -0.257812 3.484375 -0.140625 3.265625 -0.046875 C 3.046875 0.046875 2.8125 0.09375 2.5625 0.09375 C 2.15625 0.09375 1.789062 -0.0078125 1.46875 -0.21875 C 1.144531 -0.4375 0.890625 -0.726562 0.703125 -1.09375 C 0.523438 -1.457031 0.4375 -1.867188 0.4375 -2.328125 C 0.4375 -2.796875 0.53125 -3.207031 0.71875 -3.5625 C 0.90625 -3.914062 1.15625 -4.191406 1.46875 -4.390625 C 1.789062 -4.597656 2.15625 -4.703125 2.5625 -4.703125 C 2.8125 -4.703125 3.050781 -4.65625 3.28125 -4.5625 C 3.507812 -4.476562 3.707031 -4.359375 3.875 -4.203125 C 4.039062 -4.046875 4.171875 -3.863281 4.265625 -3.65625 C 4.359375 -3.457031 4.40625 -3.253906 4.40625 -3.046875 L 4.21875 -3.171875 L 4.21875 -4.3125 C 4.21875 -4.394531 4.238281 -4.460938 4.28125 -4.515625 C 4.332031 -4.566406 4.398438 -4.59375 4.484375 -4.59375 Z M 2.609375 -0.40625 C 2.929688 -0.40625 3.210938 -0.488281 3.453125 -0.65625 C 3.703125 -0.820312 3.894531 -1.050781 4.03125 -1.34375 C 4.175781 -1.632812 4.25 -1.960938 4.25 -2.328125 C 4.25 -2.679688 4.175781 -3 4.03125 -3.28125 C 3.894531 -3.5625 3.703125 -3.785156 3.453125 -3.953125 C 3.210938 -4.117188 2.929688 -4.203125 2.609375 -4.203125 C 2.296875 -4.203125 2.015625 -4.117188 1.765625 -3.953125 C 1.515625 -3.796875 1.316406 -3.578125 1.171875 -3.296875 C 1.035156 -3.015625 0.96875 -2.691406 0.96875 -2.328125 C 0.96875 -1.960938 1.035156 -1.632812 1.171875 -1.34375 C 1.316406 -1.050781 1.515625 -0.820312 1.765625 -0.65625 C 2.015625 -0.488281 2.296875 -0.40625 2.609375 -0.40625 Z M 2.609375 -0.40625 "/></g></g></g><g fill="#000000" fill-opacity="1"><g transform="translate(278.335568, 89.115151)"><g><path d="M 0.40625 -4.578125 L 2.515625 -4.578125 C 2.585938 -4.578125 2.644531 -4.550781 2.6875 -4.5 C 2.738281 -4.445312 2.765625 -4.382812 2.765625 -4.3125 C 2.765625 -4.25 2.738281 -4.191406 2.6875 -4.140625 C 2.644531 -4.097656 2.585938 -4.078125 2.515625 -4.078125 L 0.40625 -4.078125 C 0.34375 -4.078125 0.285156 -4.101562 0.234375 -4.15625 C 0.179688 -4.207031 0.15625 -4.265625 0.15625 -4.328125 C 0.15625 -4.398438 0.179688 -4.457031 0.234375 -4.5 C 0.285156 -4.550781 0.34375 -4.578125 0.40625 -4.578125 Z M 1.34375 -5.84375 C 1.414062 -5.84375 1.476562 -5.816406 1.53125 -5.765625 C 1.582031 -5.710938 1.609375 -5.648438 1.609375 -5.578125 L 1.609375 -1.0625 C 1.609375 -0.894531 1.628906 -0.769531 1.671875 -0.6875 C 1.722656 -0.601562 1.785156 -0.546875 1.859375 -0.515625 C 1.929688 -0.492188 2 -0.484375 2.0625 -0.484375 C 2.113281 -0.484375 2.160156 -0.488281 2.203125 -0.5 C 2.242188 -0.507812 2.285156 -0.515625 2.328125 -0.515625 C 2.378906 -0.515625 2.425781 -0.492188 2.46875 -0.453125 C 2.507812 -0.410156 2.53125 -0.359375 2.53125 -0.296875 C 2.53125 -0.210938 2.476562 -0.140625 2.375 -0.078125 C 2.28125 -0.0234375 2.171875 0 2.046875 0 C 1.992188 0 1.910156 -0.00390625 1.796875 -0.015625 C 1.691406 -0.0234375 1.582031 -0.0546875 1.46875 -0.109375 C 1.351562 -0.171875 1.257812 -0.269531 1.1875 -0.40625 C 1.113281 -0.550781 1.078125 -0.757812 1.078125 -1.03125 L 1.078125 -5.578125 C 1.078125 -5.648438 1.097656 -5.710938 1.140625 -5.765625 C 1.191406 -5.816406 1.257812 -5.84375 1.34375 -5.84375 Z M 1.34375 -5.84375 "/></g></g></g><g fill="#000000" fill-opacity="1"><g transform="translate(281.386586, 89.115151)"><g><path d="M 1.234375 -0.265625 C 1.234375 -0.191406 1.207031 -0.128906 1.15625 -0.078125 C 1.101562 -0.0234375 1.039062 0 0.96875 0 C 0.882812 0 0.816406 -0.0234375 0.765625 -0.078125 C 0.710938 -0.128906 0.6875 -0.191406 0.6875 -0.265625 L 0.6875 -4.40625 C 0.6875 -4.476562 0.710938 -4.539062 0.765625 -4.59375 C 0.816406 -4.65625 0.882812 -4.6875 0.96875 -4.6875 C 1.039062 -4.6875 1.101562 -4.65625 1.15625 -4.59375 C 1.207031 -4.539062 1.234375 -4.476562 1.234375 -4.40625 Z M 0.96875 -5.28125 C 0.84375 -5.28125 0.75 -5.304688 0.6875 -5.359375 C 0.625 -5.421875 0.59375 -5.503906 0.59375 -5.609375 L 0.59375 -5.703125 C 0.59375 -5.804688 0.625 -5.882812 0.6875 -5.9375 C 0.757812 -6 0.859375 -6.03125 0.984375 -6.03125 C 1.097656 -6.03125 1.1875 -6 1.25 -5.9375 C 1.3125 -5.882812 1.34375 -5.804688 1.34375 -5.703125 L 1.34375 -5.609375 C 1.34375 -5.503906 1.3125 -5.421875 1.25 -5.359375 C 1.1875 -5.304688 1.09375 -5.28125 0.96875 -5.28125 Z M 0.96875 -5.28125 "/></g></g></g><g fill="#000000" fill-opacity="1"><g transform="translate(283.312603, 89.115151)"><g><path d="M 5 -2.296875 C 5 -1.847656 4.898438 -1.441406 4.703125 -1.078125 C 4.503906 -0.710938 4.234375 -0.425781 3.890625 -0.21875 C 3.546875 -0.0078125 3.15625 0.09375 2.71875 0.09375 C 2.289062 0.09375 1.90625 -0.0078125 1.5625 -0.21875 C 1.21875 -0.425781 0.941406 -0.710938 0.734375 -1.078125 C 0.535156 -1.441406 0.4375 -1.847656 0.4375 -2.296875 C 0.4375 -2.765625 0.535156 -3.175781 0.734375 -3.53125 C 0.941406 -3.894531 1.21875 -4.179688 1.5625 -4.390625 C 1.90625 -4.597656 2.289062 -4.703125 2.71875 -4.703125 C 3.15625 -4.703125 3.546875 -4.597656 3.890625 -4.390625 C 4.234375 -4.179688 4.503906 -3.894531 4.703125 -3.53125 C 4.898438 -3.175781 5 -2.765625 5 -2.296875 Z M 4.453125 -2.296875 C 4.453125 -2.671875 4.375 -3 4.21875 -3.28125 C 4.070312 -3.5625 3.867188 -3.785156 3.609375 -3.953125 C 3.347656 -4.117188 3.050781 -4.203125 2.71875 -4.203125 C 2.394531 -4.203125 2.097656 -4.117188 1.828125 -3.953125 C 1.566406 -3.785156 1.359375 -3.5625 1.203125 -3.28125 C 1.054688 -3 0.984375 -2.671875 0.984375 -2.296875 C 0.984375 -1.929688 1.054688 -1.609375 1.203125 -1.328125 C 1.359375 -1.046875 1.566406 -0.820312 1.828125 -0.65625 C 2.097656 -0.488281 2.394531 -0.40625 2.71875 -0.40625 C 3.050781 -0.40625 3.347656 -0.488281 3.609375 -0.65625 C 3.867188 -0.820312 4.070312 -1.046875 4.21875 -1.328125 C 4.375 -1.609375 4.453125 -1.929688 4.453125 -2.296875 Z M 4.453125 -2.296875 "/></g></g></g><g fill="#000000" fill-opacity="1"><g transform="translate(288.748638, 89.115151)"><g><path d="M 2.875 -4.703125 C 3.269531 -4.703125 3.585938 -4.625 3.828125 -4.46875 C 4.066406 -4.3125 4.238281 -4.09375 4.34375 -3.8125 C 4.445312 -3.539062 4.5 -3.242188 4.5 -2.921875 L 4.5 -0.265625 C 4.5 -0.191406 4.472656 -0.128906 4.421875 -0.078125 C 4.367188 -0.0234375 4.304688 0 4.234375 0 C 4.148438 0 4.082031 -0.0234375 4.03125 -0.078125 C 3.976562 -0.128906 3.953125 -0.191406 3.953125 -0.265625 L 3.953125 -2.890625 C 3.953125 -3.128906 3.910156 -3.347656 3.828125 -3.546875 C 3.753906 -3.742188 3.628906 -3.898438 3.453125 -4.015625 C 3.273438 -4.140625 3.046875 -4.203125 2.765625 -4.203125 C 2.503906 -4.203125 2.257812 -4.140625 2.03125 -4.015625 C 1.800781 -3.898438 1.613281 -3.742188 1.46875 -3.546875 C 1.320312 -3.347656 1.25 -3.128906 1.25 -2.890625 L 1.25 -0.265625 C 1.25 -0.191406 1.222656 -0.128906 1.171875 -0.078125 C 1.117188 -0.0234375 1.054688 0 0.984375 0 C 0.898438 0 0.832031 -0.0234375 0.78125 -0.078125 C 0.738281 -0.128906 0.71875 -0.191406 0.71875 -0.265625 L 0.71875 -4.296875 C 0.71875 -4.367188 0.738281 -4.429688 0.78125 -4.484375 C 0.832031 -4.546875 0.898438 -4.578125 0.984375 -4.578125 C 1.054688 -4.578125 1.117188 -4.546875 1.171875 -4.484375 C 1.222656 -4.429688 1.25 -4.367188 1.25 -4.296875 L 1.25 -3.546875 L 1.046875 -3.21875 C 1.054688 -3.414062 1.113281 -3.601562 1.21875 -3.78125 C 1.332031 -3.957031 1.476562 -4.113281 1.65625 -4.25 C 1.832031 -4.394531 2.023438 -4.503906 2.234375 -4.578125 C 2.453125 -4.660156 2.664062 -4.703125 2.875 -4.703125 Z M 2.875 -4.703125 "/></g></g></g></svg>